G04 #@! TF.GenerationSoftware,KiCad,Pcbnew,5.0.2+dfsg1-1*
G04 #@! TF.CreationDate,2020-03-08T16:41:42+01:00*
G04 #@! TF.ProjectId,dlp_01,646c705f-3031-42e6-9b69-6361645f7063,rev?*
G04 #@! TF.SameCoordinates,Original*
G04 #@! TF.FileFunction,Legend,Top*
G04 #@! TF.FilePolarity,Positive*
%FSLAX46Y46*%
G04 Gerber Fmt 4.6, Leading zero omitted, Abs format (unit mm)*
G04 Created by KiCad (PCBNEW 5.0.2+dfsg1-1) date Sun 08 Mar 2020 16:41:42 CET*
%MOMM*%
%LPD*%
G01*
G04 APERTURE LIST*
%ADD10C,0.200000*%
%ADD11C,0.120000*%
%ADD12C,0.150000*%
%ADD13C,0.300000*%
G04 APERTURE END LIST*
D10*
G04 #@! TO.C,U7*
X160284400Y-137806400D02*
X148168400Y-137806400D01*
X160284400Y-144496400D02*
X148168400Y-144496400D01*
X160314400Y-137806400D02*
X160314400Y-144496400D01*
X160284400Y-144496400D02*
X160314400Y-144496400D01*
X148168400Y-137806400D02*
X148168400Y-144496400D01*
X164082200Y-137751400D02*
G75*
G02X163882200Y-137551400I0J200000D01*
G01*
X144832200Y-139901400D02*
X144973967Y-139901400D01*
X160414400Y-137806400D02*
X160414400Y-144496400D01*
X147511400Y-144496400D02*
X147511400Y-144571400D01*
X160314400Y-137806400D02*
X160284400Y-137806400D01*
X160971400Y-144571400D02*
X147511400Y-144571400D01*
X148068400Y-144496400D02*
X148068400Y-137806400D01*
X148068400Y-137806400D02*
X145932201Y-137806400D01*
X145932201Y-144496400D02*
X148068400Y-144496400D01*
X160284400Y-144496400D02*
X160284400Y-137806400D01*
X144973967Y-142401400D02*
X144832200Y-142401400D01*
X160971400Y-137806400D02*
X160971400Y-137731400D01*
X163882200Y-144751400D02*
G75*
G02X164082200Y-144551400I200000J0D01*
G01*
X164082200Y-139901400D02*
X164082200Y-137751400D01*
X162582199Y-137806400D02*
X160414400Y-137806400D01*
X163082200Y-140301400D02*
G75*
G02X163482200Y-139901400I400000J0D01*
G01*
X145515043Y-140442476D02*
G75*
G02X145632200Y-140725319I-282843J-282843D01*
G01*
X160971400Y-137731400D02*
X147511400Y-137731400D01*
X160414400Y-144496400D02*
X160314400Y-144496400D01*
X160971400Y-144571400D02*
X160971400Y-144496400D01*
X160414400Y-137806400D02*
X160314400Y-137806400D01*
X144832200Y-144551400D02*
X144832200Y-142401400D01*
X147511400Y-137806400D02*
X147511400Y-137731400D01*
X144973967Y-139901400D02*
X145515043Y-140442476D01*
X162582200Y-144496400D02*
X162582200Y-137806400D01*
X145932200Y-144496400D02*
X145932200Y-137806400D01*
X148168400Y-144496400D02*
X148068400Y-144496400D01*
X144832200Y-144551400D02*
G75*
G02X145032200Y-144751400I0J-200000D01*
G01*
X164082200Y-142401400D02*
X163482200Y-142401400D01*
X163882200Y-137551400D02*
X145032200Y-137551400D01*
X145032200Y-137551400D02*
G75*
G02X144832200Y-137751400I-200000J0D01*
G01*
X163082200Y-142001400D02*
X163082200Y-140301400D01*
X145632200Y-141577481D02*
G75*
G02X145515043Y-141860324I-400000J0D01*
G01*
X164082200Y-144551400D02*
X164082200Y-142401400D01*
X145515043Y-141860324D02*
X144973967Y-142401400D01*
X160414400Y-144496400D02*
X162582199Y-144496400D01*
X163882200Y-144751400D02*
X145032200Y-144751400D01*
X148168400Y-137806400D02*
X148068400Y-137806400D01*
X144832200Y-139901400D02*
X144832200Y-137751400D01*
X163482200Y-139901400D02*
X164082200Y-139901400D01*
X145632200Y-140725319D02*
X145632200Y-141577481D01*
X163482200Y-142401401D02*
G75*
G02X163082199Y-142001400I0J400001D01*
G01*
D11*
G04 #@! TO.C,R75*
X104215645Y-90570796D02*
X103890087Y-90570796D01*
X104215645Y-91590796D02*
X103890087Y-91590796D01*
G04 #@! TO.C,R76*
X104262779Y-89090000D02*
X103937221Y-89090000D01*
X104262779Y-90110000D02*
X103937221Y-90110000D01*
G04 #@! TO.C,R79*
X104215645Y-91990000D02*
X103890087Y-91990000D01*
X104215645Y-93010000D02*
X103890087Y-93010000D01*
G04 #@! TO.C,R83*
X104209913Y-102394652D02*
X103884355Y-102394652D01*
X104209913Y-103414652D02*
X103884355Y-103414652D01*
G04 #@! TO.C,R84*
X104209913Y-103794652D02*
X103884355Y-103794652D01*
X104209913Y-104814652D02*
X103884355Y-104814652D01*
G04 #@! TO.C,R85*
X104197413Y-105194652D02*
X103871855Y-105194652D01*
X104197413Y-106214652D02*
X103871855Y-106214652D01*
G04 #@! TO.C,R86*
X104215645Y-96370796D02*
X103890087Y-96370796D01*
X104215645Y-97390796D02*
X103890087Y-97390796D01*
G04 #@! TO.C,R87*
X104215645Y-94870796D02*
X103890087Y-94870796D01*
X104215645Y-95890796D02*
X103890087Y-95890796D01*
G04 #@! TO.C,R88*
X104215645Y-93470796D02*
X103890087Y-93470796D01*
X104215645Y-94490796D02*
X103890087Y-94490796D01*
G04 #@! TO.C,R90*
X104215645Y-99270796D02*
X103890087Y-99270796D01*
X104215645Y-100290796D02*
X103890087Y-100290796D01*
G04 #@! TO.C,R100*
X104215645Y-97870796D02*
X103890087Y-97870796D01*
X104215645Y-98890796D02*
X103890087Y-98890796D01*
G04 #@! TO.C,R101*
X104215645Y-100870796D02*
X103890087Y-100870796D01*
X104215645Y-101890796D02*
X103890087Y-101890796D01*
G04 #@! TO.C,R103*
X178610000Y-67762779D02*
X178610000Y-67437221D01*
X177590000Y-67762779D02*
X177590000Y-67437221D01*
G04 #@! TO.C,R104*
X180010000Y-67762779D02*
X180010000Y-67437221D01*
X178990000Y-67762779D02*
X178990000Y-67437221D01*
G04 #@! TO.C,R1*
X175910000Y-117762779D02*
X175910000Y-117437221D01*
X174890000Y-117762779D02*
X174890000Y-117437221D01*
G04 #@! TO.C,R2*
X178310000Y-117762779D02*
X178310000Y-117437221D01*
X177290000Y-117762779D02*
X177290000Y-117437221D01*
G04 #@! TO.C,R3*
X180910000Y-117762779D02*
X180910000Y-117437221D01*
X179890000Y-117762779D02*
X179890000Y-117437221D01*
G04 #@! TO.C,R4*
X137637221Y-128710000D02*
X137962779Y-128710000D01*
X137637221Y-127690000D02*
X137962779Y-127690000D01*
G04 #@! TO.C,R5*
X137662779Y-122590000D02*
X137337221Y-122590000D01*
X137662779Y-123610000D02*
X137337221Y-123610000D01*
G04 #@! TO.C,R6*
X137662779Y-121090000D02*
X137337221Y-121090000D01*
X137662779Y-122110000D02*
X137337221Y-122110000D01*
G04 #@! TO.C,R7*
X179890000Y-121137221D02*
X179890000Y-121462779D01*
X180910000Y-121137221D02*
X180910000Y-121462779D01*
G04 #@! TO.C,R8*
X177290000Y-121137221D02*
X177290000Y-121462779D01*
X178310000Y-121137221D02*
X178310000Y-121462779D01*
G04 #@! TO.C,R9*
X174890000Y-121137221D02*
X174890000Y-121462779D01*
X175910000Y-121137221D02*
X175910000Y-121462779D01*
G04 #@! TO.C,R13*
X137662779Y-124090000D02*
X137337221Y-124090000D01*
X137662779Y-125110000D02*
X137337221Y-125110000D01*
G04 #@! TO.C,R14*
X174960000Y-98562779D02*
X174960000Y-98237221D01*
X173940000Y-98562779D02*
X173940000Y-98237221D01*
G04 #@! TO.C,R15*
X178010000Y-85562779D02*
X178010000Y-85237221D01*
X176990000Y-85562779D02*
X176990000Y-85237221D01*
G04 #@! TO.C,R17*
X175910000Y-110862779D02*
X175910000Y-110537221D01*
X174890000Y-110862779D02*
X174890000Y-110537221D01*
G04 #@! TO.C,R18*
X177240000Y-110637221D02*
X177240000Y-110962779D01*
X178260000Y-110637221D02*
X178260000Y-110962779D01*
G04 #@! TO.C,R20*
X176610000Y-98562779D02*
X176610000Y-98237221D01*
X175590000Y-98562779D02*
X175590000Y-98237221D01*
G04 #@! TO.C,R21*
X178260000Y-114162779D02*
X178260000Y-113837221D01*
X177240000Y-114162779D02*
X177240000Y-113837221D01*
G04 #@! TO.C,R22*
X178210000Y-98562779D02*
X178210000Y-98237221D01*
X177190000Y-98562779D02*
X177190000Y-98237221D01*
G04 #@! TO.C,R23*
X171437221Y-129110000D02*
X171762779Y-129110000D01*
X171437221Y-128090000D02*
X171762779Y-128090000D01*
G04 #@! TO.C,R24*
X175910000Y-114162779D02*
X175910000Y-113837221D01*
X174890000Y-114162779D02*
X174890000Y-113837221D01*
G04 #@! TO.C,R25*
X171437221Y-127510000D02*
X171762779Y-127510000D01*
X171437221Y-126490000D02*
X171762779Y-126490000D01*
G04 #@! TO.C,R26*
X154090000Y-130837221D02*
X154090000Y-131162779D01*
X155110000Y-130837221D02*
X155110000Y-131162779D01*
G04 #@! TO.C,R27*
X171437221Y-130710000D02*
X171762779Y-130710000D01*
X171437221Y-129690000D02*
X171762779Y-129690000D01*
G04 #@! TO.C,R28*
X186010000Y-70762779D02*
X186010000Y-70437221D01*
X184990000Y-70762779D02*
X184990000Y-70437221D01*
G04 #@! TO.C,R29*
X177590000Y-70337221D02*
X177590000Y-70662779D01*
X178610000Y-70337221D02*
X178610000Y-70662779D01*
G04 #@! TO.C,R30*
X155110000Y-128362779D02*
X155110000Y-128037221D01*
X154090000Y-128362779D02*
X154090000Y-128037221D01*
G04 #@! TO.C,R31*
X154090000Y-117937221D02*
X154090000Y-118262779D01*
X155110000Y-117937221D02*
X155110000Y-118262779D01*
G04 #@! TO.C,R32*
X137337221Y-119010000D02*
X137662779Y-119010000D01*
X137337221Y-117990000D02*
X137662779Y-117990000D01*
G04 #@! TO.C,R33*
X144710000Y-99112779D02*
X144710000Y-98787221D01*
X143690000Y-99112779D02*
X143690000Y-98787221D01*
G04 #@! TO.C,R34*
X147710000Y-86162779D02*
X147710000Y-85837221D01*
X146690000Y-86162779D02*
X146690000Y-85837221D01*
G04 #@! TO.C,R35*
X184710000Y-70762779D02*
X184710000Y-70437221D01*
X183690000Y-70762779D02*
X183690000Y-70437221D01*
G04 #@! TO.C,R36*
X180390000Y-70337221D02*
X180390000Y-70662779D01*
X181410000Y-70337221D02*
X181410000Y-70662779D01*
G04 #@! TO.C,R38*
X146310000Y-99112779D02*
X146310000Y-98787221D01*
X145290000Y-99112779D02*
X145290000Y-98787221D01*
G04 #@! TO.C,R40*
X147910000Y-99112779D02*
X147910000Y-98787221D01*
X146890000Y-99112779D02*
X146890000Y-98787221D01*
G04 #@! TO.C,R45*
X137962779Y-129290000D02*
X137637221Y-129290000D01*
X137962779Y-130310000D02*
X137637221Y-130310000D01*
G04 #@! TO.C,R46*
X187310000Y-70762779D02*
X187310000Y-70437221D01*
X186290000Y-70762779D02*
X186290000Y-70437221D01*
G04 #@! TO.C,R47*
X178990000Y-70337221D02*
X178990000Y-70662779D01*
X180010000Y-70337221D02*
X180010000Y-70662779D01*
G04 #@! TO.C,R48*
X183010000Y-121462779D02*
X183010000Y-121137221D01*
X181990000Y-121462779D02*
X181990000Y-121137221D01*
G04 #@! TO.C,R49*
X136010000Y-68375279D02*
X136010000Y-68049721D01*
X134990000Y-68375279D02*
X134990000Y-68049721D01*
G04 #@! TO.C,R50*
X137662779Y-119590000D02*
X137337221Y-119590000D01*
X137662779Y-120610000D02*
X137337221Y-120610000D01*
G04 #@! TO.C,R55*
X110662779Y-132090000D02*
X110337221Y-132090000D01*
X110662779Y-133110000D02*
X110337221Y-133110000D01*
G04 #@! TO.C,R57*
X110990000Y-126437221D02*
X110990000Y-126762779D01*
X112010000Y-126437221D02*
X112010000Y-126762779D01*
G04 #@! TO.C,R59*
X117090000Y-140737221D02*
X117090000Y-141062779D01*
X118110000Y-140737221D02*
X118110000Y-141062779D01*
G04 #@! TO.C,R60*
X125162779Y-143990000D02*
X124837221Y-143990000D01*
X125162779Y-145010000D02*
X124837221Y-145010000D01*
G04 #@! TO.C,R61*
X108710000Y-137962779D02*
X108710000Y-137637221D01*
X107690000Y-137962779D02*
X107690000Y-137637221D01*
G04 #@! TO.C,R62*
X118690000Y-140687221D02*
X118690000Y-141012779D01*
X119710000Y-140687221D02*
X119710000Y-141012779D01*
G04 #@! TO.C,R63*
X115490000Y-118937221D02*
X115490000Y-119262779D01*
X116510000Y-118937221D02*
X116510000Y-119262779D01*
G04 #@! TO.C,R64*
X134960000Y-128302064D02*
X134960000Y-125497936D01*
X132240000Y-128302064D02*
X132240000Y-125497936D01*
G04 #@! TO.C,R65*
X118910000Y-115862779D02*
X118910000Y-115537221D01*
X117890000Y-115862779D02*
X117890000Y-115537221D01*
G04 #@! TO.C,R66*
X186087221Y-139010000D02*
X186412779Y-139010000D01*
X186087221Y-137990000D02*
X186412779Y-137990000D01*
G04 #@! TO.C,R67*
X183362779Y-141190000D02*
X183037221Y-141190000D01*
X183362779Y-142210000D02*
X183037221Y-142210000D01*
G04 #@! TO.C,R68*
X153040000Y-69587221D02*
X153040000Y-69912779D01*
X154060000Y-69587221D02*
X154060000Y-69912779D01*
G04 #@! TO.C,R69*
X133190000Y-66437221D02*
X133190000Y-66762779D01*
X134210000Y-66437221D02*
X134210000Y-66762779D01*
G04 #@! TO.C,R72*
X154740000Y-69587221D02*
X154740000Y-69912779D01*
X155760000Y-69587221D02*
X155760000Y-69912779D01*
G04 #@! TO.C,R73*
X131490000Y-66437221D02*
X131490000Y-66762779D01*
X132510000Y-66437221D02*
X132510000Y-66762779D01*
G04 #@! TO.C,R80*
X126487221Y-111390000D02*
X126812779Y-111390000D01*
X126487221Y-110370000D02*
X126812779Y-110370000D01*
G04 #@! TO.C,R81*
X114810000Y-120862779D02*
X114810000Y-120537221D01*
X113790000Y-120862779D02*
X113790000Y-120537221D01*
G04 #@! TO.C,R82*
X113510000Y-120862779D02*
X113510000Y-120537221D01*
X112490000Y-120862779D02*
X112490000Y-120537221D01*
G04 #@! TO.C,R89*
X121362779Y-109240000D02*
X121037221Y-109240000D01*
X121362779Y-110260000D02*
X121037221Y-110260000D01*
G04 #@! TO.C,R91*
X113802064Y-114190000D02*
X112597936Y-114190000D01*
X113802064Y-116010000D02*
X112597936Y-116010000D01*
G04 #@! TO.C,R97*
X128537221Y-97210000D02*
X128862779Y-97210000D01*
X128537221Y-96190000D02*
X128862779Y-96190000D01*
G04 #@! TO.C,R98*
X186362779Y-139490000D02*
X186037221Y-139490000D01*
X186362779Y-140510000D02*
X186037221Y-140510000D01*
G04 #@! TO.C,R99*
X185837221Y-143710000D02*
X186162779Y-143710000D01*
X185837221Y-142690000D02*
X186162779Y-142690000D01*
G04 #@! TO.C,C49*
X107090000Y-128897936D02*
X107090000Y-130102064D01*
X108910000Y-128897936D02*
X108910000Y-130102064D01*
G04 #@! TO.C,C51*
X108910000Y-134702064D02*
X108910000Y-133497936D01*
X107090000Y-134702064D02*
X107090000Y-133497936D01*
G04 #@! TO.C,C52*
X130910000Y-142102064D02*
X130910000Y-140897936D01*
X129090000Y-142102064D02*
X129090000Y-140897936D01*
G04 #@! TO.C,C55*
X128710000Y-142102064D02*
X128710000Y-140897936D01*
X126890000Y-142102064D02*
X126890000Y-140897936D01*
G04 #@! TO.C,C58*
X132962779Y-139390000D02*
X132637221Y-139390000D01*
X132962779Y-140410000D02*
X132637221Y-140410000D01*
G04 #@! TO.C,C63*
X118490000Y-118937221D02*
X118490000Y-119262779D01*
X119510000Y-118937221D02*
X119510000Y-119262779D01*
G04 #@! TO.C,C68*
X125162779Y-142390000D02*
X124837221Y-142390000D01*
X125162779Y-143410000D02*
X124837221Y-143410000D01*
G04 #@! TO.C,C69*
X110210000Y-138012779D02*
X110210000Y-137687221D01*
X109190000Y-138012779D02*
X109190000Y-137687221D01*
G04 #@! TO.C,C70*
X117090000Y-118937221D02*
X117090000Y-119262779D01*
X118110000Y-118937221D02*
X118110000Y-119262779D01*
G04 #@! TO.C,C72*
X122010000Y-142302064D02*
X122010000Y-141097936D01*
X120190000Y-142302064D02*
X120190000Y-141097936D01*
G04 #@! TO.C,C74*
X126310000Y-140862779D02*
X126310000Y-140537221D01*
X125290000Y-140862779D02*
X125290000Y-140537221D01*
G04 #@! TO.C,C75*
X110590000Y-137687221D02*
X110590000Y-138012779D01*
X111610000Y-137687221D02*
X111610000Y-138012779D01*
G04 #@! TO.C,C78*
X121362779Y-119990000D02*
X121037221Y-119990000D01*
X121362779Y-121010000D02*
X121037221Y-121010000D01*
G04 #@! TO.C,C79*
X124037221Y-121010000D02*
X124362779Y-121010000D01*
X124037221Y-119990000D02*
X124362779Y-119990000D01*
G04 #@! TO.C,C81*
X116610000Y-142502064D02*
X116610000Y-141297936D01*
X114790000Y-142502064D02*
X114790000Y-141297936D01*
G04 #@! TO.C,C82*
X119490000Y-115537221D02*
X119490000Y-115862779D01*
X120510000Y-115537221D02*
X120510000Y-115862779D01*
G04 #@! TO.C,C85*
X131602064Y-117490000D02*
X130397936Y-117490000D01*
X131602064Y-119310000D02*
X130397936Y-119310000D01*
G04 #@! TO.C,C88*
X131602064Y-115290000D02*
X130397936Y-115290000D01*
X131602064Y-117110000D02*
X130397936Y-117110000D01*
G04 #@! TO.C,C89*
X138450000Y-134028578D02*
X138450000Y-133511422D01*
X137030000Y-134028578D02*
X137030000Y-133511422D01*
G04 #@! TO.C,C90*
X171310000Y-147221422D02*
X171310000Y-147738578D01*
X172730000Y-147221422D02*
X172730000Y-147738578D01*
G04 #@! TO.C,C91*
X172010000Y-135158578D02*
X172010000Y-134641422D01*
X170590000Y-135158578D02*
X170590000Y-134641422D01*
G04 #@! TO.C,C92*
X137190000Y-147141422D02*
X137190000Y-147658578D01*
X138610000Y-147141422D02*
X138610000Y-147658578D01*
G04 #@! TO.C,C93*
X110710000Y-114402064D02*
X110710000Y-113197936D01*
X108890000Y-114402064D02*
X108890000Y-113197936D01*
G04 #@! TO.C,C94*
X117510000Y-114302064D02*
X117510000Y-113097936D01*
X115690000Y-114302064D02*
X115690000Y-113097936D01*
G04 #@! TO.C,C95*
X186910000Y-129062779D02*
X186910000Y-128737221D01*
X185890000Y-129062779D02*
X185890000Y-128737221D01*
G04 #@! TO.C,C96*
X183362779Y-142690000D02*
X183037221Y-142690000D01*
X183362779Y-143710000D02*
X183037221Y-143710000D01*
G04 #@! TO.C,C97*
X174190000Y-125437221D02*
X174190000Y-125762779D01*
X175210000Y-125437221D02*
X175210000Y-125762779D01*
G04 #@! TO.C,C98*
X178410000Y-140162779D02*
X178410000Y-139837221D01*
X177390000Y-140162779D02*
X177390000Y-139837221D01*
G04 #@! TO.C,C99*
X172140000Y-91837221D02*
X172140000Y-92162779D01*
X173160000Y-91837221D02*
X173160000Y-92162779D01*
G04 #@! TO.C,C100*
X141890000Y-92387221D02*
X141890000Y-92712779D01*
X142910000Y-92387221D02*
X142910000Y-92712779D01*
G04 #@! TO.C,TH1*
X185987221Y-142210000D02*
X186312779Y-142210000D01*
X185987221Y-141190000D02*
X186312779Y-141190000D01*
G04 #@! TO.C,L1*
X122500000Y-139700000D02*
X122500000Y-141700000D01*
X124700000Y-139700000D02*
X124700000Y-141700000D01*
G04 #@! TO.C,L2*
X109400000Y-134000000D02*
X109400000Y-136000000D01*
X111600000Y-134000000D02*
X111600000Y-136000000D01*
G04 #@! TO.C,TP2*
X158450000Y-100500000D02*
G75*
G03X158450000Y-100500000I-950000J0D01*
G01*
G04 #@! TO.C,TP3*
X158450000Y-98200000D02*
G75*
G03X158450000Y-98200000I-950000J0D01*
G01*
G04 #@! TO.C,TP4*
X156150000Y-100500000D02*
G75*
G03X156150000Y-100500000I-950000J0D01*
G01*
G04 #@! TO.C,TP5*
X156150000Y-98200000D02*
G75*
G03X156150000Y-98200000I-950000J0D01*
G01*
G04 #@! TO.C,TP6*
X156150000Y-95900000D02*
G75*
G03X156150000Y-95900000I-950000J0D01*
G01*
G04 #@! TO.C,TP7*
X158450000Y-95900000D02*
G75*
G03X158450000Y-95900000I-950000J0D01*
G01*
G04 #@! TO.C,TP8*
X158450000Y-93600000D02*
G75*
G03X158450000Y-93600000I-950000J0D01*
G01*
G04 #@! TO.C,TP9*
X156150000Y-93600000D02*
G75*
G03X156150000Y-93600000I-950000J0D01*
G01*
G04 #@! TO.C,D1*
X134650000Y-138900000D02*
X130750000Y-138900000D01*
X134650000Y-136900000D02*
X130750000Y-136900000D01*
X134650000Y-138900000D02*
X134650000Y-136900000D01*
G04 #@! TO.C,L3*
X133490000Y-132390000D02*
X132510000Y-132390000D01*
X133490000Y-136410000D02*
X132510000Y-136410000D01*
D12*
G04 #@! TO.C,U4*
X174300000Y-94750000D02*
X174300000Y-96500000D01*
X180055000Y-94750000D02*
X180055000Y-89250000D01*
X173645000Y-94750000D02*
X173645000Y-89250000D01*
X180055000Y-94750000D02*
X179305000Y-94750000D01*
X180055000Y-89250000D02*
X179305000Y-89250000D01*
X173645000Y-89250000D02*
X174395000Y-89250000D01*
X173645000Y-94750000D02*
X174300000Y-94750000D01*
G04 #@! TO.C,U5*
X144050000Y-95300000D02*
X144050000Y-97050000D01*
X149805000Y-95300000D02*
X149805000Y-89800000D01*
X143395000Y-95300000D02*
X143395000Y-89800000D01*
X149805000Y-95300000D02*
X149055000Y-95300000D01*
X149805000Y-89800000D02*
X149055000Y-89800000D01*
X143395000Y-89800000D02*
X144145000Y-89800000D01*
X143395000Y-95300000D02*
X144050000Y-95300000D01*
D11*
G04 #@! TO.C,L4*
X128350000Y-112190000D02*
X128350000Y-118890000D01*
X120850000Y-112190000D02*
X128350000Y-112190000D01*
X120850000Y-119690000D02*
X120850000Y-112190000D01*
X127550000Y-119690000D02*
X120850000Y-119690000D01*
X128350000Y-118890000D02*
X127550000Y-119690000D01*
D10*
G04 #@! TO.C,U1*
X169450000Y-130750000D02*
G75*
G03X169450000Y-130750000I-100000J0D01*
G01*
D11*
X169470000Y-129750000D02*
X169470000Y-127595000D01*
X168350000Y-130870000D02*
X169470000Y-129750000D01*
X166195000Y-130870000D02*
X168350000Y-130870000D01*
X169470000Y-117530000D02*
X169470000Y-120805000D01*
X166195000Y-117530000D02*
X169470000Y-117530000D01*
X156130000Y-130870000D02*
X156130000Y-127595000D01*
X159405000Y-130870000D02*
X156130000Y-130870000D01*
X156130000Y-117530000D02*
X156130000Y-120805000D01*
X159405000Y-117530000D02*
X156130000Y-117530000D01*
X156130000Y-130870000D02*
X156130000Y-127595000D01*
X159405000Y-130870000D02*
X156130000Y-130870000D01*
X156130000Y-130870000D02*
X156130000Y-127595000D01*
X159405000Y-130870000D02*
X156130000Y-130870000D01*
D10*
G04 #@! TO.C,U2*
X153050000Y-130750000D02*
G75*
G03X153050000Y-130750000I-100000J0D01*
G01*
D11*
X153070000Y-129750000D02*
X153070000Y-127595000D01*
X151950000Y-130870000D02*
X153070000Y-129750000D01*
X149795000Y-130870000D02*
X151950000Y-130870000D01*
X153070000Y-117530000D02*
X153070000Y-120805000D01*
X149795000Y-117530000D02*
X153070000Y-117530000D01*
X139730000Y-130870000D02*
X139730000Y-127595000D01*
X143005000Y-130870000D02*
X139730000Y-130870000D01*
X139730000Y-117530000D02*
X139730000Y-120805000D01*
X143005000Y-117530000D02*
X139730000Y-117530000D01*
X139730000Y-130870000D02*
X139730000Y-127595000D01*
X143005000Y-130870000D02*
X139730000Y-130870000D01*
X139730000Y-130870000D02*
X139730000Y-127595000D01*
X143005000Y-130870000D02*
X139730000Y-130870000D01*
D12*
G04 #@! TO.C,U9*
X177700000Y-125100000D02*
X175700000Y-125100000D01*
X177700000Y-126100000D02*
X177700000Y-125100000D01*
X175700000Y-126100000D02*
X177700000Y-126100000D01*
X175700000Y-125100000D02*
X175700000Y-126100000D01*
D13*
X175570711Y-126700000D02*
G75*
G03X175570711Y-126700000I-70711J0D01*
G01*
D12*
G04 #@! TO.C,U6*
X128375000Y-136375000D02*
X129650000Y-136375000D01*
X114025000Y-137075000D02*
X114825000Y-137075000D01*
X114025000Y-122725000D02*
X114825000Y-122725000D01*
X128375000Y-122725000D02*
X127575000Y-122725000D01*
X128375000Y-137075000D02*
X127575000Y-137075000D01*
X128375000Y-122725000D02*
X128375000Y-123525000D01*
X114025000Y-122725000D02*
X114025000Y-123525000D01*
X114025000Y-137075000D02*
X114025000Y-136275000D01*
X128375000Y-137075000D02*
X128375000Y-136375000D01*
D11*
G04 #@! TO.C,U8*
X114200000Y-94300000D02*
X113400000Y-94300000D01*
X113400000Y-94300000D02*
X113400000Y-95100000D01*
X126200000Y-94500000D02*
X126200000Y-107100000D01*
X126200000Y-107100000D02*
X113600000Y-107100000D01*
X113600000Y-107100000D02*
X113600000Y-94500000D01*
X113600000Y-94500000D02*
X126200000Y-94500000D01*
G04 #@! TO.C,R109*
X125890000Y-66437221D02*
X125890000Y-66762779D01*
X126910000Y-66437221D02*
X126910000Y-66762779D01*
G04 #@! TO.C,R110*
X124290000Y-66437221D02*
X124290000Y-66762779D01*
X125310000Y-66437221D02*
X125310000Y-66762779D01*
G04 #@! TO.C,R111*
X123710000Y-66337221D02*
X123710000Y-66662779D01*
X122690000Y-66337221D02*
X122690000Y-66662779D01*
G04 #@! TO.C,J10*
X123240000Y-59990000D02*
X123240000Y-57330000D01*
X123240000Y-57330000D02*
X123300000Y-57330000D01*
X174100000Y-57330000D02*
X174160000Y-57330000D01*
X174160000Y-59990000D02*
X174160000Y-57330000D01*
X123240000Y-59990000D02*
X123300000Y-59990000D01*
X174100000Y-59990000D02*
X174160000Y-59990000D01*
X123300000Y-57330000D02*
X123300000Y-55870000D01*
G04 #@! TO.C,R112*
X181410000Y-67762779D02*
X181410000Y-67437221D01*
X180390000Y-67762779D02*
X180390000Y-67437221D01*
G04 #@! TO.C,R113*
X186010000Y-67762779D02*
X186010000Y-67437221D01*
X184990000Y-67762779D02*
X184990000Y-67437221D01*
G04 #@! TO.C,R114*
X186290000Y-67762779D02*
X186290000Y-67437221D01*
X187310000Y-67762779D02*
X187310000Y-67437221D01*
G04 #@! TO.C,R115*
X183690000Y-67762779D02*
X183690000Y-67437221D01*
X184710000Y-67762779D02*
X184710000Y-67437221D01*
G04 #@! TD*
M02*
