G04 #@! TF.GenerationSoftware,KiCad,Pcbnew,5.0.2+dfsg1-1*
G04 #@! TF.CreationDate,2020-03-08T16:41:42+01:00*
G04 #@! TF.ProjectId,dlp_01,646c705f-3031-42e6-9b69-6361645f7063,rev?*
G04 #@! TF.SameCoordinates,Original*
G04 #@! TF.FileFunction,Legend,Bot*
G04 #@! TF.FilePolarity,Positive*
%FSLAX46Y46*%
G04 Gerber Fmt 4.6, Leading zero omitted, Abs format (unit mm)*
G04 Created by KiCad (PCBNEW 5.0.2+dfsg1-1) date Sun 08 Mar 2020 16:41:42 CET*
%MOMM*%
%LPD*%
G01*
G04 APERTURE LIST*
%ADD10C,0.120000*%
G04 APERTURE END LIST*
D10*
G04 #@! TO.C,R102*
X123241422Y-124590000D02*
X123758578Y-124590000D01*
X123241422Y-126010000D02*
X123758578Y-126010000D01*
G04 #@! TO.C,J1*
X174085000Y-60435000D02*
X174150000Y-60435000D01*
X174085000Y-56905000D02*
X174150000Y-56905000D01*
X123230000Y-60435000D02*
X123295000Y-60435000D01*
X123230000Y-56905000D02*
X123295000Y-56905000D01*
X123295000Y-55580000D02*
X123295000Y-56905000D01*
X174150000Y-56905000D02*
X174150000Y-60435000D01*
X123230000Y-56905000D02*
X123230000Y-60435000D01*
G04 #@! TO.C,J2*
X174085000Y-113425000D02*
X174150000Y-113425000D01*
X174085000Y-109895000D02*
X174150000Y-109895000D01*
X123230000Y-113425000D02*
X123295000Y-113425000D01*
X123230000Y-109895000D02*
X123295000Y-109895000D01*
X123295000Y-108570000D02*
X123295000Y-109895000D01*
X174150000Y-109895000D02*
X174150000Y-113425000D01*
X123230000Y-109895000D02*
X123230000Y-113425000D01*
G04 #@! TO.C,R10*
X157140000Y-133912779D02*
X157140000Y-133587221D01*
X158160000Y-133912779D02*
X158160000Y-133587221D01*
G04 #@! TO.C,R11*
X133237221Y-122390000D02*
X133562779Y-122390000D01*
X133237221Y-123410000D02*
X133562779Y-123410000D01*
G04 #@! TO.C,R12*
X133237221Y-120890000D02*
X133562779Y-120890000D01*
X133237221Y-121910000D02*
X133562779Y-121910000D01*
G04 #@! TO.C,R16*
X154562779Y-131510000D02*
X154237221Y-131510000D01*
X154562779Y-130490000D02*
X154237221Y-130490000D01*
G04 #@! TO.C,R19*
X153010000Y-104887221D02*
X153010000Y-105212779D01*
X151990000Y-104887221D02*
X151990000Y-105212779D01*
G04 #@! TO.C,R37*
X151110000Y-104887221D02*
X151110000Y-105212779D01*
X150090000Y-104887221D02*
X150090000Y-105212779D01*
G04 #@! TO.C,R39*
X133337221Y-119290000D02*
X133662779Y-119290000D01*
X133337221Y-120310000D02*
X133662779Y-120310000D01*
G04 #@! TO.C,R41*
X137962779Y-133410000D02*
X137637221Y-133410000D01*
X137962779Y-132390000D02*
X137637221Y-132390000D01*
G04 #@! TO.C,R42*
X130390000Y-120762779D02*
X130390000Y-120437221D01*
X131410000Y-120762779D02*
X131410000Y-120437221D01*
G04 #@! TO.C,R43*
X137962779Y-131910000D02*
X137637221Y-131910000D01*
X137962779Y-130890000D02*
X137637221Y-130890000D01*
G04 #@! TO.C,R44*
X137962779Y-135010000D02*
X137637221Y-135010000D01*
X137962779Y-133990000D02*
X137637221Y-133990000D01*
G04 #@! TO.C,R51*
X165462779Y-116810000D02*
X165137221Y-116810000D01*
X165462779Y-115790000D02*
X165137221Y-115790000D01*
G04 #@! TO.C,R52*
X171750000Y-142737221D02*
X171750000Y-143062779D01*
X170730000Y-142737221D02*
X170730000Y-143062779D01*
G04 #@! TO.C,R53*
X171710000Y-139137221D02*
X171710000Y-139462779D01*
X170690000Y-139137221D02*
X170690000Y-139462779D01*
G04 #@! TO.C,R54*
X128262779Y-140710000D02*
X127937221Y-140710000D01*
X128262779Y-139690000D02*
X127937221Y-139690000D01*
G04 #@! TO.C,R56*
X114310000Y-137787221D02*
X114310000Y-138112779D01*
X113290000Y-137787221D02*
X113290000Y-138112779D01*
G04 #@! TO.C,R58*
X116290000Y-138062779D02*
X116290000Y-137737221D01*
X117310000Y-138062779D02*
X117310000Y-137737221D01*
G04 #@! TO.C,R70*
X126960000Y-66387221D02*
X126960000Y-66712779D01*
X125940000Y-66387221D02*
X125940000Y-66712779D01*
G04 #@! TO.C,R71*
X125310000Y-66387221D02*
X125310000Y-66712779D01*
X124290000Y-66387221D02*
X124290000Y-66712779D01*
G04 #@! TO.C,R74*
X156710000Y-116337221D02*
X156710000Y-116662779D01*
X155690000Y-116337221D02*
X155690000Y-116662779D01*
G04 #@! TO.C,R77*
X123710000Y-66387221D02*
X123710000Y-66712779D01*
X122690000Y-66387221D02*
X122690000Y-66712779D01*
G04 #@! TO.C,R78*
X158037221Y-115290000D02*
X158362779Y-115290000D01*
X158037221Y-116310000D02*
X158362779Y-116310000D01*
G04 #@! TO.C,R92*
X117010000Y-98237221D02*
X117010000Y-98562779D01*
X115990000Y-98237221D02*
X115990000Y-98562779D01*
G04 #@! TO.C,R93*
X125590000Y-101362779D02*
X125590000Y-101037221D01*
X126610000Y-101362779D02*
X126610000Y-101037221D01*
G04 #@! TO.C,R94*
X126610000Y-104037221D02*
X126610000Y-104362779D01*
X125590000Y-104037221D02*
X125590000Y-104362779D01*
G04 #@! TO.C,R95*
X110037221Y-104790000D02*
X110362779Y-104790000D01*
X110037221Y-105810000D02*
X110362779Y-105810000D01*
G04 #@! TO.C,R96*
X109890000Y-118162779D02*
X109890000Y-117837221D01*
X110910000Y-118162779D02*
X110910000Y-117837221D01*
G04 #@! TO.C,C47*
X154462779Y-136310000D02*
X154137221Y-136310000D01*
X154462779Y-135290000D02*
X154137221Y-135290000D01*
G04 #@! TO.C,C48*
X122590000Y-142202064D02*
X122590000Y-140997936D01*
X124410000Y-142202064D02*
X124410000Y-140997936D01*
G04 #@! TO.C,C50*
X124790000Y-142202064D02*
X124790000Y-140997936D01*
X126610000Y-142202064D02*
X126610000Y-140997936D01*
G04 #@! TO.C,C53*
X109497936Y-137190000D02*
X110702064Y-137190000D01*
X109497936Y-139010000D02*
X110702064Y-139010000D01*
G04 #@! TO.C,C54*
X115810000Y-137687221D02*
X115810000Y-138012779D01*
X114790000Y-137687221D02*
X114790000Y-138012779D01*
G04 #@! TO.C,C56*
X109497936Y-134890000D02*
X110702064Y-134890000D01*
X109497936Y-136710000D02*
X110702064Y-136710000D01*
G04 #@! TO.C,C57*
X120390000Y-142202064D02*
X120390000Y-140997936D01*
X122210000Y-142202064D02*
X122210000Y-140997936D01*
G04 #@! TO.C,C59*
X129802064Y-130610000D02*
X128597936Y-130610000D01*
X129802064Y-128790000D02*
X128597936Y-128790000D01*
G04 #@! TO.C,C60*
X116910000Y-124697936D02*
X116910000Y-125902064D01*
X115090000Y-124697936D02*
X115090000Y-125902064D01*
G04 #@! TO.C,C61*
X119910000Y-132997936D02*
X119910000Y-134202064D01*
X118090000Y-132997936D02*
X118090000Y-134202064D01*
G04 #@! TO.C,C62*
X130862779Y-138510000D02*
X130537221Y-138510000D01*
X130862779Y-137490000D02*
X130537221Y-137490000D01*
G04 #@! TO.C,C64*
X129802064Y-128410000D02*
X128597936Y-128410000D01*
X129802064Y-126590000D02*
X128597936Y-126590000D01*
G04 #@! TO.C,C65*
X122110000Y-132997936D02*
X122110000Y-134202064D01*
X120290000Y-132997936D02*
X120290000Y-134202064D01*
G04 #@! TO.C,C66*
X125602064Y-138810000D02*
X124397936Y-138810000D01*
X125602064Y-136990000D02*
X124397936Y-136990000D01*
G04 #@! TO.C,C67*
X130862779Y-137110000D02*
X130537221Y-137110000D01*
X130862779Y-136090000D02*
X130537221Y-136090000D01*
G04 #@! TO.C,C71*
X129602064Y-135710000D02*
X128397936Y-135710000D01*
X129602064Y-133890000D02*
X128397936Y-133890000D01*
G04 #@! TO.C,C73*
X124310000Y-132997936D02*
X124310000Y-134202064D01*
X122490000Y-132997936D02*
X122490000Y-134202064D01*
G04 #@! TO.C,C76*
X117710000Y-132997936D02*
X117710000Y-134202064D01*
X115890000Y-132997936D02*
X115890000Y-134202064D01*
G04 #@! TO.C,C77*
X120690000Y-118902064D02*
X120690000Y-117697936D01*
X122510000Y-118902064D02*
X122510000Y-117697936D01*
G04 #@! TO.C,C80*
X122890000Y-118902064D02*
X122890000Y-117697936D01*
X124710000Y-118902064D02*
X124710000Y-117697936D01*
G04 #@! TO.C,C83*
X118490000Y-118902064D02*
X118490000Y-117697936D01*
X120310000Y-118902064D02*
X120310000Y-117697936D01*
G04 #@! TO.C,C84*
X129602064Y-133510000D02*
X128397936Y-133510000D01*
X129602064Y-131690000D02*
X128397936Y-131690000D01*
G04 #@! TO.C,C86*
X116290000Y-118902064D02*
X116290000Y-117697936D01*
X118110000Y-118902064D02*
X118110000Y-117697936D01*
G04 #@! TO.C,C87*
X126510000Y-129997936D02*
X126510000Y-131202064D01*
X124690000Y-129997936D02*
X124690000Y-131202064D01*
G04 #@! TO.C,D5*
X109635000Y-116340000D02*
X109635000Y-118800000D01*
X108165000Y-116340000D02*
X109635000Y-116340000D01*
X108165000Y-118800000D02*
X108165000Y-116340000D01*
G04 #@! TO.C,TP1*
X130950000Y-149600000D02*
G75*
G03X130950000Y-149600000I-950000J0D01*
G01*
G04 #@! TO.C,TP10*
X124650000Y-149600000D02*
G75*
G03X124650000Y-149600000I-950000J0D01*
G01*
G04 #@! TO.C,TP11*
X158650000Y-136500000D02*
G75*
G03X158650000Y-136500000I-950000J0D01*
G01*
G04 #@! TO.C,D2*
X134200000Y-130500000D02*
X132350000Y-130500000D01*
X134200000Y-131700000D02*
X132350000Y-131700000D01*
X132350000Y-131700000D02*
X132350000Y-130500000D01*
G04 #@! TO.C,D3*
X134400000Y-127200000D02*
X132550000Y-127200000D01*
X134400000Y-128400000D02*
X132550000Y-128400000D01*
X132550000Y-128400000D02*
X132550000Y-127200000D01*
G04 #@! TO.C,D4*
X134400000Y-124100000D02*
X132550000Y-124100000D01*
X134400000Y-125300000D02*
X132550000Y-125300000D01*
X132550000Y-125300000D02*
X132550000Y-124100000D01*
G04 #@! TO.C,J6*
X174945001Y-133555001D02*
X174945001Y-129995001D01*
X177605001Y-131015001D02*
X177605001Y-127905001D01*
X177605001Y-128475001D02*
X177605001Y-127905001D01*
X174945001Y-135645001D02*
X174945001Y-135075001D01*
X174945001Y-135075001D02*
X173425001Y-135075001D01*
X177605001Y-135645001D02*
X177605001Y-132535001D01*
X174945001Y-127905001D02*
X177605001Y-127905001D01*
X174945001Y-135645001D02*
X177605001Y-135645001D01*
G04 #@! TO.C,J7*
X183415000Y-133555001D02*
X183415000Y-129995001D01*
X186075000Y-131015001D02*
X186075000Y-127905001D01*
X186075000Y-128475001D02*
X186075000Y-127905001D01*
X183415000Y-135645001D02*
X183415000Y-135075001D01*
X183415000Y-135075001D02*
X181895000Y-135075001D01*
X186075000Y-135645001D02*
X186075000Y-132535001D01*
X183415000Y-127905001D02*
X186075000Y-127905001D01*
X183415000Y-135645001D02*
X186075000Y-135645001D01*
G04 #@! TO.C,J8*
X174845001Y-144355001D02*
X174845001Y-140795001D01*
X177505001Y-141815001D02*
X177505001Y-138705001D01*
X177505001Y-139275001D02*
X177505001Y-138705001D01*
X174845001Y-146445001D02*
X174845001Y-145875001D01*
X174845001Y-145875001D02*
X173325001Y-145875001D01*
X177505001Y-146445001D02*
X177505001Y-143335001D01*
X174845001Y-138705001D02*
X177505001Y-138705001D01*
X174845001Y-146445001D02*
X177505001Y-146445001D01*
G04 #@! TO.C,J9*
X183415000Y-144380000D02*
X183415000Y-140820000D01*
X186075000Y-141840000D02*
X186075000Y-138730000D01*
X186075000Y-139300000D02*
X186075000Y-138730000D01*
X183415000Y-146470000D02*
X183415000Y-145900000D01*
X183415000Y-145900000D02*
X181895000Y-145900000D01*
X186075000Y-146470000D02*
X186075000Y-143360000D01*
X183415000Y-138730000D02*
X186075000Y-138730000D01*
X183415000Y-146470000D02*
X186075000Y-146470000D01*
G04 #@! TO.C,Q1*
X108620000Y-101940000D02*
X108620000Y-103400000D01*
X111780000Y-101940000D02*
X111780000Y-104100000D01*
X111780000Y-101940000D02*
X110850000Y-101940000D01*
X108620000Y-101940000D02*
X109550000Y-101940000D01*
G04 #@! TO.C,J4*
X198010000Y-119200000D02*
X198010000Y-134440000D01*
X190390000Y-119200000D02*
X190390000Y-134440000D01*
X196740000Y-119200000D02*
X196740000Y-134440000D01*
X198010000Y-134440000D02*
X190390000Y-134440000D01*
X198010000Y-119200000D02*
X190390000Y-119200000D01*
G04 #@! TO.C,J5*
X96990000Y-142240000D02*
X96990000Y-127000000D01*
X104610000Y-142240000D02*
X104610000Y-127000000D01*
X98260000Y-142240000D02*
X98260000Y-127000000D01*
X96990000Y-127000000D02*
X104610000Y-127000000D01*
X96990000Y-142240000D02*
X104610000Y-142240000D01*
G04 #@! TO.C,U3*
X156550000Y-135350000D02*
X152250000Y-135350000D01*
X156550000Y-131850000D02*
X156550000Y-135350000D01*
G04 #@! TO.C,J3*
X106900000Y-126500000D02*
X106900000Y-123900000D01*
X92200000Y-126500000D02*
X106900000Y-126500000D01*
X106900000Y-117300000D02*
X105000000Y-117300000D01*
X106900000Y-120000000D02*
X106900000Y-117300000D01*
X92200000Y-117300000D02*
X92200000Y-126500000D01*
X101000000Y-117300000D02*
X92200000Y-117300000D01*
X106050000Y-126700000D02*
X107100000Y-126700000D01*
X107100000Y-125650000D02*
X107100000Y-126700000D01*
G04 #@! TO.C,R105*
X154690000Y-69537221D02*
X154690000Y-69862779D01*
X155710000Y-69537221D02*
X155710000Y-69862779D01*
G04 #@! TO.C,R106*
X152990000Y-69537221D02*
X152990000Y-69862779D01*
X154010000Y-69537221D02*
X154010000Y-69862779D01*
G04 #@! TO.C,R107*
X132510000Y-66437221D02*
X132510000Y-66762779D01*
X131490000Y-66437221D02*
X131490000Y-66762779D01*
G04 #@! TO.C,R108*
X133190000Y-66437221D02*
X133190000Y-66762779D01*
X134210000Y-66437221D02*
X134210000Y-66762779D01*
G04 #@! TD*
M02*
