M48
;DRILL file {KiCad 5.0.2+dfsg1-1} date Sun 08 Mar 2020 16:41:49 CET
;FORMAT={-:-/ absolute / metric / decimal}
FMAT,2
METRIC,TZ
T1C0.200
T2C0.500
T3C1.000
T4C1.520
T5C3.200
%
G90
G05
T1
X100.5Y-91.3
X100.9Y-92.1
X101.6Y-92.7
X101.8Y-93.4
X102.4Y-94.
X102.4Y-98.3
X102.4Y-101.4
X102.5Y-95.4
X107.2Y-137.1
X107.5Y-137.9
X108.Y-127.21
X109.3Y-111.35
X109.4Y-106.3
X110.2Y-111.35
X111.25Y-132.05
X111.25Y-131.45
X111.7Y-128.4
X112.3Y-129.
X112.4Y-109.4
X112.4Y-126.3
X112.5Y-102.5
X112.8Y-137.2
X113.Y-119.171
X113.Y-123.1
X113.5Y-136.2
X113.673Y-103.9
X114.1Y-102.327
X114.3Y-126.9
X114.5Y-133.4
X114.5Y-134.9
X114.6Y-143.4
X114.627Y-116.4
X114.7Y-125.398
X114.727Y-127.9
X114.727Y-129.4
X114.9Y-108.2
X115.Y-117.
X115.Y-136.4
X115.32Y-96.22
X115.32Y-98.51
X115.32Y-100.8
X115.32Y-103.09
X115.4Y-116.4
X115.4Y-125.3
X115.5Y-135.8
X115.6Y-120.8
X115.7Y-149.3
X115.8Y-115.8
X115.8Y-117.
X116.Y-117.8
X116.Y-124.6
X116.031Y-127.392
X116.1Y-108.7
X116.1Y-111.25
X116.1Y-136.3
X116.2Y-120.9
X116.2Y-148.7
X116.7Y-131.4
X116.7Y-135.1
X116.7Y-136.1
X116.7Y-148.1
X116.9Y-128.1
X117.Y-111.25
X117.2Y-147.5
X117.3Y-123.4
X117.4Y-136.2
X117.61Y-96.22
X117.61Y-98.51
X117.61Y-100.8
X117.61Y-103.09
X117.7Y-120.8
X117.8Y-126.
X118.Y-136.
X118.3Y-118.35
X118.3Y-138.9
X118.6Y-136.4
X119.Y-135.1
X119.2Y-121.2
X119.2Y-142.3
X119.2Y-142.9
X119.587Y-128.41
X119.687Y-129.91
X119.687Y-131.21
X119.9Y-96.22
X119.9Y-98.51
X119.9Y-100.8
X119.9Y-103.09
X119.9Y-105.38
X120.Y-136.3
X120.3Y-110.4
X120.3Y-110.9
X120.5Y-143.9
X121.1Y-138.9
X121.187Y-128.41
X121.187Y-131.11
X121.2Y-129.9
X121.3Y-135.1
X121.3Y-144.
X121.7Y-123.4
X121.92Y-110.49
X122.19Y-96.22
X122.19Y-98.51
X122.19Y-100.8
X122.19Y-103.09
X122.19Y-105.38
X122.4Y-138.9
X122.5Y-124.2
X122.887Y-128.41
X122.887Y-129.91
X122.887Y-131.11
X123.2Y-68.
X123.2Y-68.7
X123.2Y-123.3
X123.2Y-139.5
X123.5Y-144.5
X123.6Y-135.1
X123.7Y-136.6
X123.9Y-55.2
X123.9Y-108.2
X124.112Y-139.512
X124.2Y-123.2
X124.48Y-96.22
X124.48Y-98.51
X124.48Y-100.8
X124.48Y-103.09
X124.48Y-105.38
X124.5Y-124.2
X124.6Y-135.
X124.7Y-121.1
X124.8Y-68.1
X124.8Y-68.8
X125.195Y-108.205
X125.2Y-55.2
X125.2Y-111.711
X125.2Y-123.3
X125.2Y-136.5
X125.6Y-132.1
X126.2Y-136.1
X126.5Y-55.2
X126.6Y-134.9
X126.8Y-136.5
X127.4Y-133.1
X127.7Y-55.2
X127.7Y-62.1
X127.702Y-138.102
X127.8Y-139.1
X127.8Y-142.2
X128.3Y-111.58
X128.669Y-139.148
X128.7Y-138.5
X129.Y-55.2
X129.Y-62.2
X129.2Y-121.8
X129.5Y-119.3
X129.948Y-138.102
X129.95Y-136.6
X129.99Y-134.39
X130.Y-139.
X130.Y-142.3
X130.1Y-96.7
X130.2Y-123.9
X130.3Y-55.2
X130.3Y-62.2
X130.874Y-121.835
X130.9Y-119.
X131.5Y-55.2
X131.5Y-126.6
X131.6Y-59.1
X131.8Y-127.7
X131.8Y-131.1
X132.Y-68.2
X132.Y-68.8
X132.098Y-122.9
X132.098Y-134.5
X132.098Y-137.027
X132.098Y-140.6
X132.498Y-62.064
X132.737Y-120.917
X132.8Y-55.2
X133.098Y-62.064
X133.2Y-118.8
X133.6Y-130.3
X133.652Y-124.273
X133.7Y-68.2
X133.9Y-146.8
X134.1Y-55.2
X134.1Y-59.1
X134.3Y-139.9
X134.4Y-126.773
X134.7Y-121.519
X134.748Y-97.44
X134.8Y-80.7
X134.8Y-81.3
X134.8Y-81.9
X134.8Y-123.
X135.Y-146.1
X135.146Y-122.2
X135.173Y-108.1
X135.175Y-88.725
X135.3Y-62.2
X135.4Y-55.2
X135.4Y-66.4
X135.5Y-69.8
X135.662Y-120.665
X135.7Y-98.2
X135.8Y-118.8
X136.127Y-117.6
X136.127Y-86.927
X136.5Y-131.4
X136.5Y-132.9
X136.5Y-134.6
X136.5Y-139.9
X136.52Y-90.55
X136.6Y-55.2
X136.6Y-62.2
X136.6Y-65.7
X136.6Y-112.2
X136.6Y-129.8
X136.7Y-125.3
X137.Y-126.7
X137.1Y-75.8
X137.23Y-121.588
X137.4Y-125.3
X137.5Y-122.5
X137.527Y-76.3
X137.7Y-119.5
X137.9Y-149.3
X137.9Y-55.3
X137.9Y-62.1
X137.9Y-65.4
X137.9Y-145.6
X138.1Y-129.8
X138.15Y-135.61
X138.7Y-115.9
X138.7Y-119.1
X138.9Y-121.45
X138.9Y-124.6
X139.059Y-123.746
X139.1Y-55.2
X139.1Y-62.1
X139.1Y-126.273
X139.103Y-133.703
X139.2Y-131.4
X139.2Y-132.9
X139.4Y-116.373
X139.5Y-128.1
X140.154Y-132.784
X140.29Y-133.7
X140.3Y-115.4
X140.3Y-123.806
X140.4Y-55.2
X140.4Y-122.2
X140.4Y-124.6
X140.41Y-130.197
X140.5Y-62.1
X140.6Y-65.9
X140.66Y-140.34
X140.7Y-101.3
X140.8Y-117.1
X140.8Y-132.77
X141.2Y-121.4
X141.2Y-122.2
X141.2Y-123.
X141.2Y-123.8
X141.2Y-124.6
X141.2Y-127.
X141.2Y-130.2
X141.24Y-131.39
X141.26Y-140.86
X141.3Y-74.8
X141.7Y-55.2
X141.7Y-62.1
X141.73Y-111.3
X141.9Y-105.2
X142.Y-117.1
X142.Y-122.2
X142.Y-123.
X142.Y-123.8
X142.Y-124.6
X142.Y-125.4
X142.Y-126.2
X142.Y-127.
X142.Y-127.8
X142.Y-128.6
X142.Y-129.4
X142.Y-130.2
X142.4Y-94.1
X142.427Y-132.79
X142.8Y-121.4
X142.8Y-122.2
X142.8Y-123.
X142.8Y-123.8
X142.8Y-124.6
X142.8Y-125.4
X142.8Y-126.2
X142.8Y-127.
X142.8Y-127.8
X142.8Y-129.4
X142.8Y-130.2
X142.9Y-117.527
X143.Y-55.2
X143.Y-62.1
X143.1Y-105.7
X143.283Y-89.1
X143.6Y-119.
X143.6Y-119.8
X143.6Y-121.4
X143.6Y-129.4
X143.6Y-130.2
X143.6Y-128.62
X143.9Y-106.227
X144.098Y-117.402
X144.2Y-55.3
X144.2Y-62.1
X144.4Y-119.
X144.4Y-119.8
X144.4Y-120.6
X144.4Y-121.4
X144.4Y-123.
X144.4Y-123.8
X144.4Y-124.6
X144.4Y-125.4
X144.4Y-126.2
X144.4Y-127.8
X144.4Y-128.6
X144.4Y-130.2
X144.4Y-129.42
X144.51Y-134.13
X144.6Y-106.7
X145.1Y-107.2
X145.2Y-119.
X145.2Y-119.8
X145.2Y-120.6
X145.2Y-121.4
X145.2Y-123.
X145.2Y-123.8
X145.2Y-124.6
X145.2Y-125.4
X145.2Y-126.2
X145.2Y-127.8
X145.2Y-128.6
X145.2Y-129.4
X145.2Y-130.2
X145.4Y-107.8
X145.42Y-100.7
X145.5Y-55.2
X145.5Y-62.1
X145.7Y-67.1
X145.7Y-131.2
X145.773Y-111.945
X146.Y-119.
X146.Y-119.8
X146.Y-120.6
X146.Y-121.4
X146.Y-123.
X146.Y-123.8
X146.Y-124.6
X146.Y-125.4
X146.Y-126.2
X146.Y-127.8
X146.Y-128.6
X146.Y-129.4
X146.Y-138.64
X146.Y-139.38
X146.Y-143.83
X146.2Y-107.8
X146.7Y-70.5
X146.74Y-138.64
X146.74Y-139.323
X146.75Y-140.78
X146.754Y-146.654
X146.8Y-55.2
X146.8Y-62.1
X146.8Y-108.1
X146.8Y-119.
X146.8Y-119.8
X146.8Y-120.6
X146.8Y-121.4
X146.8Y-123.
X146.8Y-123.8
X146.8Y-124.6
X146.8Y-125.4
X146.8Y-126.2
X146.8Y-127.8
X146.8Y-128.6
X146.8Y-129.4
X146.8Y-130.4
X146.91Y-142.18
X146.91Y-143.67
X146.977Y-131.05
X147.2Y-84.7
X147.235Y-88.259
X147.273Y-100.697
X147.3Y-107.4
X147.473Y-146.227
X147.48Y-139.323
X147.48Y-140.13
X147.48Y-140.78
X147.48Y-141.61
X147.48Y-142.35
X147.49Y-143.84
X147.6Y-119.
X147.6Y-119.8
X147.6Y-120.6
X147.6Y-121.4
X147.6Y-123.
X147.6Y-123.8
X147.6Y-124.6
X147.6Y-125.4
X147.6Y-126.2
X147.6Y-127.8
X147.6Y-128.6
X147.6Y-129.4
X147.6Y-130.2
X147.7Y-75.3
X147.8Y-111.9
X147.998Y-107.698
X148.Y-62.1
X148.05Y-55.25
X148.2Y-98.2
X148.22Y-139.95
X148.22Y-142.18
X148.23Y-133.69
X148.23Y-139.21
X148.23Y-140.69
X148.23Y-141.44
X148.23Y-142.92
X148.23Y-143.66
X148.4Y-119.
X148.4Y-119.8
X148.4Y-120.6
X148.4Y-121.4
X148.4Y-127.8
X148.4Y-128.6
X148.4Y-129.4
X148.4Y-130.55
X148.49Y-90.07
X148.7Y-145.8
X149.086Y-139.295
X149.098Y-140.12
X149.098Y-140.86
X149.14Y-141.61
X149.14Y-142.35
X149.14Y-143.09
X149.14Y-143.83
X149.2Y-119.
X149.2Y-119.8
X149.2Y-120.6
X149.2Y-121.4
X149.2Y-122.2
X149.2Y-123.
X149.2Y-123.8
X149.2Y-124.6
X149.2Y-125.4
X149.2Y-126.2
X149.2Y-127.
X149.2Y-127.8
X149.2Y-128.6
X149.2Y-129.4
X149.248Y-108.248
X149.26Y-130.502
X149.3Y-62.1
X149.3Y-111.3
X149.325Y-115.1
X149.4Y-55.2
X149.88Y-142.92
X149.88Y-143.66
X149.944Y-134.244
X149.99Y-130.7
X150.Y-115.8
X150.Y-119.
X150.Y-119.8
X150.Y-120.6
X150.Y-121.4
X150.Y-122.2
X150.Y-123.
X150.Y-123.8
X150.Y-124.6
X150.Y-127.
X150.Y-127.8
X150.Y-128.6
X150.Y-129.4
X150.Y-125.42
X150.04Y-141.48
X150.05Y-140.75
X150.083Y-140.02
X150.277Y-111.773
X150.285Y-142.385
X150.584Y-108.212
X150.6Y-55.3
X150.6Y-62.1
X150.6Y-106.4
X150.8Y-119.
X150.8Y-119.8
X150.8Y-120.6
X150.8Y-121.4
X150.8Y-122.2
X150.8Y-123.
X150.8Y-123.8
X150.8Y-124.6
X150.8Y-129.4
X150.908Y-111.392
X151.142Y-138.423
X151.3Y-67.
X151.408Y-115.913
X151.6Y-104.3
X151.6Y-119.
X151.6Y-119.8
X151.6Y-120.6
X151.6Y-121.4
X151.6Y-122.2
X151.6Y-123.
X151.646Y-117.199
X151.9Y-55.3
X151.9Y-62.1
X152.Y-108.127
X152.1Y-130.9
X152.4Y-67.6
X152.496Y-111.6
X152.5Y-106.4
X152.5Y-117.
X152.519Y-117.601
X152.6Y-131.627
X152.7Y-124.8
X152.816Y-116.276
X153.096Y-129.819
X153.1Y-59.1
X153.15Y-55.25
X153.23Y-126.927
X153.242Y-115.81
X153.3Y-135.4
X153.4Y-125.796
X153.475Y-122.603
X153.6Y-130.1
X153.67Y-116.256
X153.7Y-62.5
X153.9Y-129.394
X153.908Y-123.782
X153.943Y-126.643
X154.2Y-93.6
X154.2Y-98.2
X154.297Y-115.894
X154.4Y-55.2
X154.4Y-68.1
X154.4Y-108.273
X154.5Y-62.8
X154.515Y-120.873
X154.524Y-116.451
X154.535Y-119.5
X154.535Y-120.2
X154.573Y-117.358
X154.698Y-122.298
X154.9Y-137.1
X155.04Y-115.042
X155.2Y-96.9
X155.2Y-101.473
X155.2Y-116.3
X155.25Y-115.62
X155.7Y-55.2
X155.7Y-59.1
X155.727Y-131.1
X155.773Y-129.697
X155.8Y-135.9
X155.8Y-137.6
X155.8Y-70.5
X155.808Y-107.573
X155.9Y-124.6
X155.933Y-128.471
X155.949Y-127.448
X156.2Y-68.7
X156.3Y-64.9
X156.3Y-136.5
X156.35Y-135.502
X156.5Y-93.7
X156.5Y-95.9
X156.5Y-125.8
X156.6Y-70.5
X156.8Y-119.8
X156.8Y-120.6
X156.8Y-121.4
X156.8Y-122.2
X156.8Y-123.
X156.8Y-127.
X156.8Y-128.6
X156.8Y-130.2
X156.801Y-127.801
X156.882Y-124.542
X156.9Y-55.2
X156.935Y-118.916
X156.973Y-108.2
X157.Y-112.2
X157.027Y-62.2
X157.081Y-69.277
X157.48Y-135.01
X157.6Y-117.2
X157.6Y-119.
X157.6Y-119.8
X157.6Y-120.6
X157.6Y-121.4
X157.6Y-122.2
X157.6Y-123.
X157.6Y-124.6
X157.6Y-125.4
X157.6Y-127.
X157.6Y-127.8
X157.6Y-128.6
X157.6Y-129.4
X157.6Y-130.2
X157.608Y-123.783
X157.7Y-69.9
X158.2Y-55.3
X158.2Y-59.1
X158.2Y-70.4
X158.231Y-108.2
X158.38Y-133.9
X158.4Y-122.2
X158.4Y-123.
X158.4Y-123.8
X158.4Y-124.6
X158.4Y-125.4
X158.4Y-126.2
X158.4Y-127.
X158.4Y-127.8
X158.4Y-128.6
X158.4Y-129.4
X158.4Y-130.2
X158.4Y-132.28
X158.4Y-98.2
X158.472Y-135.5
X158.63Y-143.09
X158.63Y-143.84
X158.673Y-133.003
X158.679Y-139.283
X158.717Y-140.765
X158.827Y-100.7
X158.9Y-70.9
X159.Y-131.5
X159.1Y-117.4
X159.1Y-130.8
X159.18Y-127.
X159.19Y-126.21
X159.2Y-121.4
X159.2Y-122.2
X159.2Y-123.
X159.2Y-123.8
X159.2Y-124.6
X159.2Y-125.4
X159.2Y-127.8
X159.2Y-129.4
X159.3Y-146.227
X159.329Y-141.392
X159.38Y-143.09
X159.492Y-132.265
X159.496Y-140.694
X159.5Y-55.3
X159.5Y-59.1
X159.5Y-108.2
X159.528Y-139.945
X159.547Y-139.209
X159.55Y-142.18
X159.56Y-143.66
X159.6Y-71.4
X159.696Y-137.1
X159.894Y-131.411
X159.894Y-130.45
X160.Y-117.4
X160.Y-119.
X160.Y-119.8
X160.Y-121.4
X160.Y-128.6
X160.Y-129.4
X160.028Y-118.1
X160.072Y-140.65
X160.072Y-141.392
X160.093Y-140.06
X160.098Y-137.6
X160.098Y-139.38
X160.1Y-146.5
X160.11Y-143.09
X160.11Y-143.84
X160.2Y-72.1
X160.202Y-142.265
X160.6Y-136.1
X160.7Y-55.2
X160.7Y-72.7
X160.794Y-130.25
X160.8Y-59.1
X160.8Y-119.
X160.8Y-119.8
X160.8Y-120.6
X160.8Y-121.4
X160.8Y-123.
X160.8Y-123.8
X160.8Y-124.6
X160.8Y-125.4
X160.8Y-126.2
X160.8Y-127.8
X160.8Y-128.6
X160.8Y-129.4
X160.831Y-111.827
X160.831Y-115.6
X160.86Y-143.09
X161.Y-142.317
X161.002Y-139.295
X161.02Y-141.494
X161.03Y-139.95
X161.03Y-140.69
X161.1Y-135.7
X161.59Y-128.61
X161.6Y-119.
X161.6Y-119.8
X161.6Y-120.6
X161.6Y-121.4
X161.6Y-123.
X161.6Y-123.8
X161.6Y-124.6
X161.6Y-125.4
X161.6Y-126.2
X161.6Y-127.8
X161.6Y-129.4
X161.6Y-130.2
X161.6Y-143.09
X161.662Y-108.2
X161.7Y-73.4
X161.962Y-115.327
X162.Y-55.2
X162.Y-59.2
X162.196Y-107.6
X162.2Y-72.1
X162.4Y-119.
X162.4Y-119.8
X162.4Y-120.6
X162.4Y-121.4
X162.4Y-123.
X162.4Y-123.8
X162.4Y-124.6
X162.4Y-125.4
X162.4Y-126.2
X162.4Y-127.8
X162.4Y-128.6
X162.4Y-129.4
X162.4Y-130.2
X162.51Y-138.47
X162.51Y-140.7
X162.52Y-142.92
X162.52Y-143.67
X162.7Y-74.2
X163.2Y-119.
X163.2Y-119.8
X163.2Y-120.6
X163.2Y-121.4
X163.2Y-123.
X163.2Y-123.8
X163.2Y-124.6
X163.2Y-125.4
X163.2Y-126.2
X163.2Y-127.8
X163.2Y-128.6
X163.2Y-129.4
X163.2Y-130.2
X163.3Y-55.25
X163.3Y-62.1
X163.597Y-130.997
X163.7Y-71.
X164.Y-119.
X164.Y-119.8
X164.Y-120.6
X164.Y-121.4
X164.Y-123.
X164.Y-123.8
X164.Y-124.6
X164.Y-125.4
X164.Y-126.2
X164.Y-127.8
X164.Y-128.6
X164.Y-129.4
X164.173Y-69.9
X164.357Y-131.411
X164.373Y-117.2
X164.527Y-108.1
X164.577Y-115.1
X164.6Y-55.2
X164.6Y-62.1
X164.7Y-74.2
X164.8Y-119.
X164.8Y-119.8
X164.8Y-120.6
X164.8Y-121.4
X164.8Y-127.8
X164.8Y-128.6
X164.8Y-129.4
X164.8Y-130.2
X165.2Y-73.4
X165.597Y-130.5
X165.6Y-119.
X165.6Y-119.8
X165.6Y-120.6
X165.6Y-121.4
X165.6Y-122.2
X165.6Y-123.
X165.6Y-123.8
X165.6Y-124.6
X165.6Y-125.4
X165.6Y-126.2
X165.6Y-127.8
X165.6Y-128.6
X165.6Y-129.4
X165.7Y-66.
X165.8Y-55.2
X165.8Y-62.1
X165.8Y-108.1
X165.9Y-115.1
X166.2Y-72.7
X166.4Y-119.
X166.4Y-119.8
X166.4Y-120.6
X166.4Y-121.4
X166.4Y-122.2
X166.4Y-123.
X166.4Y-123.8
X166.4Y-124.6
X166.4Y-127.
X166.4Y-127.8
X166.4Y-128.6
X166.4Y-129.4
X166.4Y-125.42
X166.7Y-65.4
X166.7Y-130.6
X167.Y-112.2
X167.Y-117.2
X167.1Y-55.2
X167.1Y-62.1
X167.1Y-64.9
X167.1Y-115.4
X167.104Y-108.1
X167.2Y-119.
X167.2Y-119.8
X167.2Y-120.6
X167.2Y-121.4
X167.2Y-122.2
X167.2Y-123.
X167.2Y-123.8
X167.2Y-124.6
X167.2Y-129.4
X167.4Y-131.2
X167.7Y-66.5
X168.Y-119.
X168.Y-119.8
X168.Y-120.6
X168.Y-121.4
X168.Y-122.2
X168.Y-123.
X168.Y-124.6
X168.Y-129.4
X168.4Y-55.2
X168.4Y-62.1
X168.4Y-108.2
X168.4Y-112.477
X168.7Y-71.4
X169.2Y-70.4
X169.3Y-138.4
X169.387Y-130.29
X169.5Y-126.2
X169.5Y-128.7
X169.6Y-67.6
X169.6Y-129.6
X169.7Y-55.2
X169.7Y-62.1
X169.7Y-108.1
X169.7Y-112.
X169.7Y-119.9
X169.881Y-117.9
X169.9Y-127.346
X170.Y-125.7
X170.027Y-130.82
X170.2Y-129.4
X170.2Y-142.
X170.3Y-67.
X170.321Y-123.827
X170.337Y-131.4
X170.4Y-135.8
X170.45Y-142.96
X170.9Y-55.2
X170.9Y-62.1
X170.9Y-69.4
X170.93Y-132.92
X170.95Y-126.19
X171.019Y-108.1
X171.357Y-132.33
X171.43Y-129.24
X171.5Y-68.8
X171.7Y-125.6
X172.Y-123.8
X172.2Y-55.2
X172.2Y-62.1
X172.2Y-108.2
X172.2Y-112.1
X172.281Y-133.837
X172.3Y-68.1
X172.51Y-134.67
X172.7Y-123.2
X172.793Y-128.742
X172.9Y-93.6
X172.936Y-148.257
X173.Y-121.427
X173.Y-127.
X173.092Y-146.52
X173.1Y-130.3
X173.1Y-89.111
X173.5Y-55.2
X173.5Y-62.1
X173.527Y-108.2
X173.527Y-115.2
X173.6Y-112.058
X173.72Y-97.08
X174.2Y-120.1
X174.3Y-100.9
X174.7Y-124.
X174.7Y-127.
X174.945Y-95.7
X175.773Y-100.02
X175.9Y-119.4
X176.1Y-127.773
X176.1Y-140.1
X176.2Y-106.6
X176.2Y-120.5
X176.246Y-105.8
X176.26Y-129.24
X176.673Y-118.228
X176.7Y-134.3
X176.8Y-69.9
X177.1Y-120.5
X177.2Y-71.3
X177.2Y-115.9
X177.5Y-84.1
X177.73Y-148.78
X177.75Y-109.1
X177.75Y-112.4
X177.8Y-128.2
X177.927Y-73.573
X178.5Y-114.8
X178.6Y-139.3
X178.7Y-86.85
X178.755Y-97.195
X179.3Y-130.9
X179.4Y-99.2
X179.5Y-69.
X179.5Y-75.227
X179.8Y-133.35
X179.8Y-148.8
X179.827Y-119.73
X180.3Y-86.2
X180.3Y-130.3
X180.4Y-131.8
X180.773Y-95.7
X180.8Y-128.6
X180.9Y-75.8
X181.3Y-88.3
X181.5Y-126.6
X181.5Y-135.6
X181.5Y-140.1
X181.5Y-141.6
X181.7Y-143.1
X181.9Y-124.
X182.7Y-133.3
X182.8Y-91.6
X182.8Y-124.3
X183.4Y-121.9
X183.42Y-122.98
X183.42Y-139.02
X183.5Y-120.5
X183.9Y-116.5
X184.Y-100.4
X184.1Y-74.5
X184.7Y-129.2
X185.5Y-73.5
X185.7Y-147.6
X186.4Y-127.4
X186.4Y-132.8
X186.5Y-148.1
X186.8Y-69.1
X186.8Y-76.3
X186.9Y-141.1
T2
X97.161Y-147.
X97.864Y-145.303
X97.864Y-148.697
X99.561Y-144.6
X99.561Y-149.4
X101.258Y-145.303
X101.258Y-148.697
X101.961Y-147.
X193.135Y-56.652
X193.838Y-54.955
X193.838Y-58.349
X195.535Y-54.252
X195.535Y-59.052
X197.232Y-54.955
X197.232Y-58.349
X197.935Y-56.652
X97.161Y-113.672
X97.864Y-111.975
X97.864Y-115.369
X99.561Y-111.272
X99.561Y-116.072
X101.258Y-111.975
X101.258Y-115.369
X101.961Y-113.672
X193.162Y-113.649
X193.865Y-111.952
X193.865Y-115.346
X195.562Y-111.249
X195.562Y-116.049
X197.259Y-111.952
X197.259Y-115.346
X197.962Y-113.649
X193.135Y-147.
X193.838Y-145.303
X193.838Y-148.697
X195.535Y-144.6
X195.535Y-149.4
X197.232Y-145.303
X197.232Y-148.697
X197.935Y-147.
X97.159Y-56.662
X97.862Y-54.965
X97.862Y-58.359
X99.559Y-54.262
X99.559Y-59.062
X101.256Y-54.965
X101.256Y-58.359
X101.959Y-56.662
T4
X100.8Y-129.54
X100.8Y-134.62
X100.8Y-139.7
X194.2Y-121.74
X194.2Y-126.82
X194.2Y-131.9
T5
X99.561Y-147.
X195.535Y-56.652
X99.561Y-113.672
X195.562Y-113.649
X195.535Y-147.
X99.559Y-56.662
T3
X100.Y-120.9G85X100.Y-122.9
G05
X102.Y-117.2G85X104.Y-117.2
G05
X106.Y-120.9G85X106.Y-122.9
G05
T0
M30
