0
SECTION
2
HEADER
9
$INSUNITS
70
4
9
$ACADVER
1
AC1014
9
$HANDSEED
5
FFFF
0
ENDSEC
0
SECTION
2
TABLES
0
TABLE
2
VPORT
5
8
100
AcDbSymbolTable
0
ENDTAB
0
TABLE
2
LTYPE
5
5
100
AcDbSymbolTable
0
LTYPE
5
14
100
AcDbSymbolTableRecord
100
AcDbLinetypeTableRecord
2
BYBLOCK
70
0
0
LTYPE
5
15
100
AcDbSymbolTableRecord
100
AcDbLinetypeTableRecord
2
BYLAYER
70
0
0
ENDTAB
0
TABLE
2
LAYER
5
2
100
AcDbSymbolTable
70
2
0
LAYER
5
50
100
AcDbSymbolTableRecord
100
AcDbLayerTableRecord
2
0
70
0
6
CONTINUOUS
0
ENDTAB
0
TABLE
2
STYLE
5
3
100
AcDbSymbolTable
70
1
0
STYLE
5
11
100
AcDbSymbolTableRecord
100
AcDbTextStyleTableRecord
2
STANDARD
70
0
0
ENDTAB
0
TABLE
2
VIEW
5
6
100
AcDbSymbolTable
70
0
0
ENDTAB
0
TABLE
2
UCS
5
7
100
AcDbSymbolTable
70
0
0
ENDTAB
0
TABLE
2
APPID
5
9
100
AcDbSymbolTable
70
2
0
APPID
5
12
100
AcDbSymbolTableRecord
100
AcDbRegAppTableRecord
2
ACAD
70
0
0
ENDTAB
0
TABLE
2
DIMSTYLE
5
A
100
AcDbSymbolTable
70
1
0
ENDTAB
0
TABLE
2
BLOCK_RECORD
5
1
100
AcDbSymbolTable
70
1
0
BLOCK_RECORD
5
1F
100
AcDbSymbolTableRecord
100
AcDbBlockTableRecord
2
*MODEL_SPACE
0
BLOCK_RECORD
5
1B
100
AcDbSymbolTableRecord
100
AcDbBlockTableRecord
2
*PAPER_SPACE
0
ENDTAB
0
ENDSEC
0
SECTION
2
BLOCKS
0
BLOCK
5
20
100
AcDbEntity
100
AcDbBlockBegin
2
*MODEL_SPACE
0
ENDBLK
5
21
100
AcDbEntity
100
AcDbBlockEnd
0
BLOCK
5
1C
100
AcDbEntity
100
AcDbBlockBegin
2
*PAPER_SPACE
0
ENDBLK
5
1D
100
AcDbEntity
100
AcDbBlockEnd
0
ENDSEC
0
SECTION
2
ENTITIES
0
CIRCLE
5
100
100
AcDbEntity
8
0
100
AcDbCircle
10
19.175492530935273
20
-3.7684020057624186
30
0
40
1.0000000000000004
0
CIRCLE
5
101
100
AcDbEntity
8
0
100
AcDbCircle
10
-4.3045074690646565
20
2.2315979942375925
30
0
40
0.99999999999999956
0
CIRCLE
5
102
100
AcDbEntity
8
0
100
AcDbCircle
10
17.675492530935276
20
-0.76840200576241857
30
0
40
0.74999999999999911
0
CIRCLE
5
103
100
AcDbEntity
8
0
100
AcDbCircle
10
-2.8045074690646619
20
-0.76840200576240725
30
0
40
0.74999999999999967
0
LWPOLYLINE
5
104
100
AcDbEntity
8
0
100
AcDbPolyline
90
16
70
1
43
0.0
10
15.571492530935284
20
-4.4642426666984676
10
17.109526449378375
20
-4.4642421825525282
10
17.109525680130059
20
-1.9642421825526482
10
16.559524927543563
20
-1.9642421517827127
42
-0.41421356237309503
10
16.109524958313269
20
-1.5142421825524179
10
16.109524927543333
20
-0.01424218255276038
42
-0.41421356237309653
10
16.559524927543336
20
0.43575781744723663
10
17.109524941651685
20
0.43575781744723596
10
17.109524172403336
20
2.9357578174471173
10
-2.4404758275966056
20
2.9357578174471275
10
-2.4404758275966056
20
0.4012586133960182
42
-0.73608390710068772
10
-2.440475827596607
20
-1.9380626249208333
10
-2.4404758275966074
20
-4.4642483365482937
10
-1.4285074690646673
20
-4.4642480179985098
10
-1.4285074690646637
20
-4.4651836446018347
10
15.571492530935284
20
-4.4651836446018445
0
LWPOLYLINE
5
105
100
AcDbEntity
8
0
100
AcDbPolyline
90
4
70
1
43
0.0
10
-7.6654758275965929
20
-8.7684020057624004
10
-7.6654758275965884
20
7.2315979942375925
10
22.334524172403324
20
7.2315979942375765
10
22.33452417240332
20
-8.7684020057624181
0
LWPOLYLINE
5
106
100
AcDbEntity
8
0
100
AcDbPolyline
90
22
70
1
43
0.0
10
-1.5222768705885974
20
-0.0069683360098059949
10
-2.0779974620313748
20
0.54875191344436214
10
-2.2404750931173671
20
0.54875186345010296
10
-2.2404757239010111
20
2.5987518634500062
42
0.41421356237309537
10
-1.9904758008258572
20
2.8487519403748292
10
16.759524199173203
20
2.8487577097374235
42
0.4142135623730957
10
17.009524276098027
20
2.5987577866622691
10
17.009524906881669
20
0.54875778666236585
10
16.4095249068817
20
0.54875760204276292
42
0.4142135623730952
10
15.959525045346423
20
0.098757463578081905
10
15.959525568435302
20
-1.6012425364218374
42
0.41421356237309381
10
16.409525706899977
20
-2.0512423979571146
10
17.009525706899954
20
-2.0512422133375114
10
17.009526337683596
20
-4.1012422133374145
42
0.41421356237309437
10
16.759526414608441
20
-4.3512422902622374
10
-1.9904735853906206
20
-4.3512480596248322
42
0.41421356237309437
10
-2.2404736623154422
20
-4.1012481365496782
10
-2.2404742930990862
20
-2.0512481365497748
10
-2.0779966620140948
20
-2.0512480865555149
10
-1.5222764125589825
20
-1.4955274951106832
42
0.19891236737884255
10
-1.3904745620032652
20
-1.1773294030223782
10
-1.3904748242132736
20
-0.32516634698841862
42
0.19891236737965864
0
LWPOLYLINE
5
107
100
AcDbEntity
8
0
100
AcDbPolyline
90
4
70
1
43
0.0
10
-0.25007465889215952
20
-0.86244752410506775
10
-0.77007465889213389
20
-0.86244768410872363
10
-0.77007449888847868
20
-1.382447684108699
10
-0.25007449888850403
20
-1.3824475241050433
0
LWPOLYLINE
5
108
100
AcDbEntity
8
0
100
AcDbPolyline
90
4
70
1
43
0.0
10
14.820325501110743
20
-1.3824428869529344
10
15.340325501110716
20
-1.3824427269492783
10
15.340325341107061
20
-0.86244272694930335
10
14.820325341107086
20
-0.86244288695295901
0
LWPOLYLINE
5
109
100
AcDbEntity
8
0
100
AcDbPolyline
90
4
70
1
43
0.0
10
1.9771257979797066
20
-2.3472468387970316
10
1.4571257979797334
20
-2.3472469988006877
10
1.4571259579833897
20
-2.8672469988006628
10
1.9771259579833633
20
-2.8672468387970067
0
LWPOLYLINE
5
110
100
AcDbEntity
8
0
100
AcDbPolyline
90
4
70
1
43
0.0
10
14.077924815802813
20
0.84475688461097187
10
14.597924815802788
20
0.84475704461462775
10
14.59792465579913
20
1.3647570446146029
10
14.077924655799155
20
1.364756884610947
0
LWPOLYLINE
5
111
100
AcDbEntity
8
0
100
AcDbPolyline
90
4
70
1
43
0.0
10
2.7195253411076918
20
-0.8624466103611127
10
2.1995253411077185
20
-0.86244677036476858
10
2.1995255011113746
20
-1.3824467703647436
10
2.7195255011113479
20
-1.382446610361088
0
LWPOLYLINE
5
112
100
AcDbEntity
8
0
100
AcDbPolyline
90
4
70
1
43
0.0
10
1.9771255695437175
20
-1.6048468387970667
10
1.4571255695437444
20
-1.6048469988007223
10
1.4571257295474007
20
-2.1248469988006975
10
1.9771257295473743
20
-2.1248468387970423
0
LWPOLYLINE
5
113
100
AcDbEntity
8
0
100
AcDbPolyline
90
4
70
1
43
0.0
10
1.2347255695437556
20
-1.604847067233055
10
0.7147255695437813
20
-1.6048472272367109
10
0.71472572954743652
20
-2.1248472272366863
10
1.234725729547411
20
-2.1248470672330306
0
LWPOLYLINE
5
114
100
AcDbEntity
8
0
100
AcDbPolyline
90
4
70
1
43
0.0
10
11.108324587366972
20
1.5871559708669813
10
11.628324587366947
20
1.5871561308706372
10
11.628324427363291
20
2.1071561308706128
10
11.108324427363314
20
2.1071559708669567
0
LWPOLYLINE
5
115
100
AcDbEntity
8
0
100
AcDbPolyline
90
4
70
1
43
0.0
10
13.335525044238839
20
0.10235665617501782
10
13.855525044238812
20
0.10235681617867379
10
13.855524884235157
20
0.62235681617864913
10
13.335524884235184
20
0.62235665617499336
0
LWPOLYLINE
5
116
100
AcDbEntity
8
0
100
AcDbPolyline
90
4
70
1
43
0.0
10
0.49232511267181356
20
-0.12004729566911411
10
-0.027674887328159828
20
-0.12004745567277
10
-0.027674727324503434
20
-0.64004745567274535
10
0.4923252726754701
20
-0.64004729566908947
0
LWPOLYLINE
5
117
100
AcDbEntity
8
0
100
AcDbPolyline
90
4
70
1
43
0.0
10
-0.25007397358419248
20
-3.0896475241049624
10
-0.77007397358416685
20
-3.0896476841086185
10
-0.77007381358051163
20
-3.6096476841085945
10
-0.25007381358053699
20
-3.6096475241049379
0
LWPOLYLINE
5
118
100
AcDbEntity
8
0
100
AcDbPolyline
90
4
70
1
43
0.0
10
0.49232602641576961
20
-3.0896472956689736
10
-0.027673973584203773
20
-3.0896474556726297
10
-0.027673813580547379
20
-3.6096474556726053
10
0.49232618641942616
20
-3.6096472956689492
0
LWPOLYLINE
5
119
100
AcDbEntity
8
0
100
AcDbPolyline
90
4
70
1
43
0.0
10
1.2347248842357885
20
0.62235293276683978
10
0.71472488423581426
20
0.62235277276318379
10
0.71472504423946948
20
0.10235277276320848
10
1.234725044239444
20
0.10235293276686423
0
LWPOLYLINE
5
120
100
AcDbEntity
8
0
100
AcDbPolyline
90
4
70
1
43
0.0
10
-0.25007488732814853
20
-0.12004752410510285
10
-0.7700748873281229
20
-0.12004768410875874
10
-0.77007472732446769
20
-0.64004768410873414
10
-0.25007472732449304
20
-0.64004752410507837
0
LWPOLYLINE
5
121
100
AcDbEntity
8
0
100
AcDbPolyline
90
4
70
1
43
0.0
10
12.593125272674865
20
-0.640043572260936
10
13.113125272674839
20
-0.64004341225728012
10
13.113125112671185
20
-0.12004341225730476
10
12.593125112671208
20
-0.12004357226096059
0
LWPOLYLINE
5
122
100
AcDbEntity
8
0
100
AcDbPolyline
90
4
70
1
43
0.0
10
2.7195257979796699
20
-2.3472466103610428
10
2.1995257979796965
20
-2.3472467703646989
10
2.1995259579833526
20
-2.867246770364674
10
2.719525957983326
20
-2.8672466103610184
0
LWPOLYLINE
5
123
100
AcDbEntity
8
0
100
AcDbPolyline
90
4
70
1
43
0.0
10
11.108325729546918
20
-2.1248440291328436
10
11.628325729546891
20
-2.1248438691291875
10
11.628325569543234
20
-1.6048438691292122
10
11.108325569543261
20
-1.6048440291328681
0
LWPOLYLINE
5
124
100
AcDbEntity
8
0
100
AcDbPolyline
90
4
70
1
43
0.0
10
1.9771260264156956
20
-3.0896468387969964
10
1.4571260264157224
20
-3.0896469988006525
10
1.4571261864193787
20
-3.6096469988006277
10
1.9771261864193523
20
-3.609646838796972
0
LWPOLYLINE
5
125
100
AcDbEntity
8
0
100
AcDbPolyline
90
4
70
1
43
0.0
10
14.077925044238802
20
0.10235688461100656
10
14.597925044238774
20
0.10235704461466252
10
14.59792488423512
20
0.62235704461463781
10
14.077924884235145
20
0.62235688461098215
0
LWPOLYLINE
5
126
100
AcDbEntity
8
0
100
AcDbPolyline
90
4
70
1
43
0.0
10
2.7195255695436811
20
-1.6048466103610775
10
2.1995255695437073
20
-1.6048467703647336
10
2.1995257295473634
20
-2.1248467703647087
10
2.7195257295473367
20
-2.124846610361053
0
LWPOLYLINE
5
127
100
AcDbEntity
8
0
100
AcDbPolyline
90
4
70
1
43
0.0
10
-0.25007534420012656
20
1.3647524758948271
10
-0.77007534420010093
20
1.3647523158911712
10
-0.77007518419644572
20
0.84475231589119626
10
-0.25007518419647107
20
0.84475247589485203
0
LWPOLYLINE
5
128
100
AcDbEntity
8
0
100
AcDbPolyline
90
4
70
1
43
0.0
10
14.077925957982757
20
-2.8672431153888533
10
14.597925957982731
20
-2.8672429553851977
10
14.597925797979077
20
-2.3472429553852221
10
14.0779257979791
20
-2.3472431153888778
0
LWPOLYLINE
5
129
100
AcDbEntity
8
0
100
AcDbPolyline
90
4
70
1
43
0.0
10
14.077926186418747
20
-3.6096431153888187
10
14.597926186418722
20
-3.609642955385163
10
14.597926026415065
20
-3.0896429553851865
10
14.07792602641509
20
-3.0896431153888431
0
LWPOLYLINE
5
130
100
AcDbEntity
8
0
100
AcDbPolyline
90
4
70
1
43
0.0
10
11.85072550111089
20
-1.3824438006968898
10
12.370725501110865
20
-1.3824436406932339
10
12.37072534110721
20
-0.86244364069325841
10
11.850725341107234
20
-0.86244380069691429
0
LWPOLYLINE
5
131
100
AcDbEntity
8
0
100
AcDbPolyline
90
4
70
1
43
0.0
10
11.850725957982871
20
-2.8672438006968193
10
12.370725957982845
20
-2.8672436406931636
10
12.370725797979187
20
-2.3472436406931889
10
11.850725797979212
20
-2.3472438006968446
0
LWPOLYLINE
5
132
100
AcDbEntity
8
0
100
AcDbPolyline
90
4
70
1
43
0.0
10
14.820324815802778
20
0.84475711304696055
10
15.340324815802751
20
0.84475727305061643
10
15.340324655799096
20
1.3647572730505917
10
14.820324655799119
20
1.364757113046936
0
LWPOLYLINE
5
133
100
AcDbEntity
8
0
100
AcDbPolyline
90
4
70
1
43
0.0
10
-0.25007511576413755
20
0.62235247589486198
10
-0.77007511576411192
20
0.6223523158912061
10
-0.7700749557604567
20
0.10235231589123087
10
-0.25007495576048205
20
0.10235247589488676
0
LWPOLYLINE
5
134
100
AcDbEntity
8
0
100
AcDbPolyline
90
4
70
1
43
0.0
10
13.335525957982794
20
-2.8672433438248426
10
13.855525957982769
20
-2.8672431838211865
10
13.855525797979114
20
-2.3472431838212109
10
13.335525797979139
20
-2.347243343824867
0
LWPOLYLINE
5
135
100
AcDbEntity
8
0
100
AcDbPolyline
90
4
70
1
43
0.0
10
14.820325729546733
20
-2.1248428869528997
10
15.340325729546706
20
-2.1248427269492436
10
15.340325569543051
20
-1.6048427269492682
10
14.820325569543076
20
-1.6048428869529241
0
LWPOLYLINE
5
136
100
AcDbEntity
8
0
100
AcDbPolyline
90
4
70
1
43
0.0
10
1.9771244273637725
20
2.1071531612027585
10
1.4571244273637993
20
2.1071530011991029
10
1.4571245873674556
20
1.5871530011991273
10
1.9771245873674292
20
1.5871531612027834
0
LWPOLYLINE
5
137
100
AcDbEntity
8
0
100
AcDbPolyline
90
4
70
1
43
0.0
10
12.593125501110855
20
-1.3824435722609008
10
13.113125501110829
20
-1.3824434122572449
10
13.113125341107173
20
-0.86244341225726973
10
12.593125341107198
20
-0.86244357226092527
0
LWPOLYLINE
5
138
100
AcDbEntity
8
0
100
AcDbPolyline
90
4
70
1
43
0.0
10
-0.99247557263607877
20
2.1071522474588038
10
-1.512475572636053
20
2.1071520874551477
10
-1.5124754126323967
20
1.5871520874551721
10
-0.99247541263242212
20
1.5871522474588278
0
LWPOLYLINE
5
139
100
AcDbEntity
8
0
100
AcDbPolyline
90
4
70
1
43
0.0
10
2.7195260264156591
20
-3.0896466103610076
10
2.1995260264156853
20
-3.0896467703646637
10
2.1995261864193418
20
-3.6096467703646393
10
2.7195261864193148
20
-3.6096466103609832
0
LWPOLYLINE
5
140
100
AcDbEntity
8
0
100
AcDbPolyline
90
4
70
1
43
0.0
10
0.49232534110780257
20
-0.86244729566907896
10
-0.027674658892170814
20
-0.86244745567273484
10
-0.027674498888514421
20
-1.3824474556727102
10
0.49232550111145912
20
-1.3824472956690541
0
LWPOLYLINE
5
141
100
AcDbEntity
8
0
100
AcDbPolyline
90
4
70
1
43
0.0
10
14.820325957982721
20
-2.8672428869528641
10
15.340325957982694
20
-2.8672427269492085
10
15.340325797979039
20
-2.3472427269492337
10
14.820325797979066
20
-2.347242886952889
0
LWPOLYLINE
5
142
100
AcDbEntity
8
0
100
AcDbPolyline
90
4
70
1
43
0.0
10
1.2347244273638105
20
2.1071529327667702
10
0.71472442736383623
20
2.1071527727631141
10
0.71472458736749145
20
1.5871527727631385
10
1.2347245873674659
20
1.5871529327667944
0
LWPOLYLINE
5
143
100
AcDbEntity
8
0
100
AcDbPolyline
90
4
70
1
43
0.0
10
13.335526186418782
20
-3.6096433438248079
10
13.855526186418757
20
-3.6096431838211518
10
13.855526026415102
20
-3.0896431838211758
10
13.335526026415128
20
-3.0896433438248323
0
LWPOLYLINE
5
144
100
AcDbEntity
8
0
100
AcDbPolyline
90
4
70
1
43
0.0
10
11.108325272674939
20
-0.64004402913291347
10
11.628325272674914
20
-0.64004386912925759
10
11.628325112671256
20
-0.12004386912928237
10
11.108325112671283
20
-0.1200440291329382
0
LWPOLYLINE
5
145
100
AcDbEntity
8
0
100
AcDbPolyline
90
4
70
1
43
0.0
10
13.335525729546806
20
-2.1248433438248773
10
13.85552572954678
20
-2.1248431838212212
10
13.855525569543126
20
-1.6048431838212456
10
13.335525569543149
20
-1.6048433438249017
0
LWPOLYLINE
5
146
100
AcDbEntity
8
0
100
AcDbPolyline
90
4
70
1
43
0.0
10
11.108324815802961
20
0.84475597086701659
10
11.628324815802936
20
0.84475613087067247
10
11.628324655799279
20
1.3647561308706477
10
11.108324655799304
20
1.3647559708669921
0
LWPOLYLINE
5
147
100
AcDbEntity
8
0
100
AcDbPolyline
90
4
70
1
43
0.0
10
13.335525272674825
20
-0.6400433438249471
10
13.8555252726748
20
-0.64004318382129122
10
13.855525112671145
20
-0.12004318382131589
10
13.335525112671171
20
-0.12004334382497185
0
LWPOLYLINE
5
148
100
AcDbEntity
8
0
100
AcDbPolyline
90
4
70
1
43
0.0
10
0.49232556954379159
20
-1.604847295669044
10
-0.027674430456181801
20
-1.6048474556726999
10
-0.027674270452525407
20
-2.1248474556726751
10
0.49232572954744813
20
-2.1248472956690194
0
LWPOLYLINE
5
149
100
AcDbEntity
8
0
100
AcDbPolyline
90
4
70
1
43
0.0
10
12.5931245873669
20
1.5871564277389592
10
13.113124587366872
20
1.587156587742615
10
13.113124427363216
20
2.1071565877425904
10
12.593124427363243
20
2.1071564277389347
0
LWPOLYLINE
5
150
100
AcDbEntity
8
0
100
AcDbPolyline
90
4
70
1
43
0.0
10
11.850726186418859
20
-3.6096438006967846
10
12.370726186418832
20
-3.6096436406931289
10
12.370726026415175
20
-3.0896436406931538
10
11.850726026415202
20
-3.089643800696809
0
LWPOLYLINE
5
151
100
AcDbEntity
8
0
100
AcDbPolyline
90
4
70
1
43
0.0
10
1.2347257979797446
20
-2.3472470672330203
10
0.71472579797977032
20
-2.347247227236676
10
0.71472595798342553
20
-2.8672472272366512
10
1.2347259579834
20
-2.8672470672329959
0
LWPOLYLINE
5
152
100
AcDbEntity
8
0
100
AcDbPolyline
90
4
70
1
43
0.0
10
14.820325044238764
20
0.10235711304699543
10
15.340325044238739
20
0.1023572730506514
10
15.340324884235084
20
0.6223572730506266
10
14.820324884235109
20
0.62235711304697083
0
LWPOLYLINE
5
153
100
AcDbEntity
8
0
100
AcDbPolyline
90
4
70
1
43
0.0
10
0.49232488423582454
20
0.62235270433085099
10
-0.027675115764148842
20
0.62235254432719511
10
-0.027674955760492448
20
0.10235254432721974
10
0.49232504423948109
20
0.1023527043308755
0
LWPOLYLINE
5
154
100
AcDbEntity
8
0
100
AcDbPolyline
90
4
70
1
43
0.0
10
1.2347253411077665
20
-0.86244706723309017
10
0.71472534110779229
20
-0.86244722723674605
10
0.7147255011114475
20
-1.3824472272367214
10
1.234725501111422
20
-1.3824470672330655
0
LWPOLYLINE
5
155
100
AcDbEntity
8
0
100
AcDbPolyline
90
4
70
1
43
0.0
10
12.593125044238874
20
0.10235642773902909
10
13.113125044238849
20
0.10235658774268505
10
13.113124884235194
20
0.62235658774266045
10
12.593124884235218
20
0.62235642773900457
0
LWPOLYLINE
5
156
100
AcDbEntity
8
0
100
AcDbPolyline
90
4
70
1
43
0.0
10
2.7195244273637358
20
2.1071533896387478
10
2.1995244273637624
20
2.1071532296350917
10
2.1995245873674185
20
1.5871532296351161
10
2.7195245873673919
20
1.5871533896387717
0
LWPOLYLINE
5
157
100
AcDbEntity
8
0
100
AcDbPolyline
90
4
70
1
43
0.0
10
1.9771246557997615
20
1.3647531612027937
10
1.4571246557997883
20
1.3647530011991376
10
1.4571248158034447
20
0.84475300119916241
10
1.9771248158034183
20
0.84475316120281818
0
LWPOLYLINE
5
158
100
AcDbEntity
8
0
100
AcDbPolyline
90
4
70
1
43
0.0
10
-0.99247534420008976
20
1.3647522474588383
10
-1.512475344200064
20
1.3647520874551824
10
-1.5124751841964077
20
0.84475208745520725
10
-0.9924751841964331
20
0.84475224745886301
0
LWPOLYLINE
5
159
100
AcDbEntity
8
0
100
AcDbPolyline
90
4
70
1
43
0.0
10
11.850724815802923
20
0.84475619930300561
10
12.370724815802898
20
0.84475635930666149
10
12.370724655799242
20
1.3647563593066363
10
11.850724655799267
20
1.3647561993029806
0
LWPOLYLINE
5
160
100
AcDbEntity
8
0
100
AcDbPolyline
90
4
70
1
43
0.0
10
11.108325957982906
20
-2.8672440291328085
10
11.628325957982879
20
-2.8672438691291524
10
11.628325797979224
20
-2.3472438691291773
10
11.108325797979248
20
-2.3472440291328329
0
LWPOLYLINE
5
161
100
AcDbEntity
8
0
100
AcDbPolyline
90
4
70
1
43
0.0
10
14.07792572954677
20
-2.1248431153888885
10
14.597925729546743
20
-2.1248429553852324
10
14.597925569543087
20
-1.6048429553852572
10
14.07792556954311
20
-1.6048431153889129
0
LWPOLYLINE
5
162
100
AcDbEntity
8
0
100
AcDbPolyline
90
4
70
1
43
0.0
10
14.077925272674792
20
-0.64004311538895842
10
14.597925272674765
20
-0.64004295538530254
10
14.597925112671108
20
-0.12004295538532715
10
14.077925112671135
20
-0.12004311538898298
0
LWPOLYLINE
5
163
100
AcDbEntity
8
0
100
AcDbPolyline
90
4
70
1
43
0.0
10
11.108325501110929
20
-1.3824440291328783
10
11.628325501110904
20
-1.3824438691292222
10
11.628325341107246
20
-0.86244386912924709
10
11.108325341107271
20
-0.86244402913290297
0
LWPOLYLINE
5
164
100
AcDbEntity
8
0
100
AcDbPolyline
90
4
70
1
43
0.0
10
0.49232465579983553
20
1.3647527043308161
10
-0.027675344200137855
20
1.3647525443271602
10
-0.027675184196481462
20
0.84475254432718505
10
0.49232481580349208
20
0.84475270433084071
0
LWPOLYLINE
5
165
100
AcDbEntity
8
0
100
AcDbPolyline
90
4
70
1
43
0.0
10
11.108325044238949
20
0.10235597086705148
10
11.628325044238924
20
0.10235613087070744
10
11.628324884235269
20
0.62235613087068264
10
11.108324884235293
20
0.62235597086702688
0
LWPOLYLINE
5
166
100
AcDbEntity
8
0
100
AcDbPolyline
90
4
70
1
43
0.0
10
13.335525501110816
20
-1.382443343824912
10
13.85552550111079
20
-1.3824431838212561
10
13.855525341107136
20
-0.86244318382128082
10
13.335525341107159
20
-0.86244334382493659
0
LWPOLYLINE
5
167
100
AcDbEntity
8
0
100
AcDbPolyline
90
4
70
1
43
0.0
10
-0.25007557263611557
20
2.1071524758947926
10
-0.77007557263608994
20
2.1071523158911369
10
-0.77007541263243473
20
1.5871523158911609
10
-0.25007541263246008
20
1.587152475894817
0
LWPOLYLINE
5
168
100
AcDbEntity
8
0
100
AcDbPolyline
90
4
70
1
43
0.0
10
12.593124815802888
20
0.84475642773899429
10
13.113124815802861
20
0.84475658774265017
10
13.113124655799204
20
1.3647565877426255
10
12.59312465579923
20
1.3647564277389694
0
LWPOLYLINE
5
169
100
AcDbEntity
8
0
100
AcDbPolyline
90
4
70
1
43
0.0
10
1.2347251126717775
20
-0.12004706723312523
10
0.71472511267180328
20
-0.12004722723678113
10
0.71472527267545849
20
-0.64004722723675644
10
1.234725272675433
20
-0.64004706723310067
0
LWPOLYLINE
5
170
100
AcDbEntity
8
0
100
AcDbPolyline
90
4
70
1
43
0.0
10
12.593125729546843
20
-2.1248435722608656
10
13.113125729546818
20
-2.12484341225721
10
13.113125569543161
20
-1.6048434122572348
10
12.593125569543187
20
-1.6048435722608902
0
LWPOLYLINE
5
171
100
AcDbEntity
8
0
100
AcDbPolyline
90
4
70
1
43
0.0
10
1.2347260264157336
20
-3.0896470672329852
10
0.71472602641575933
20
-3.0896472272366409
10
0.71472618641941454
20
-3.6096472272366165
10
1.234726186419389
20
-3.6096470672329604
0
LWPOLYLINE
5
172
100
AcDbEntity
8
0
100
AcDbPolyline
90
4
70
1
43
0.0
10
14.820325272674753
20
-0.64004288695296951
10
15.340325272674725
20
-0.64004272694931363
10
15.340325112671071
20
-0.12004272694933842
10
14.820325112671098
20
-0.12004288695299424
0
LWPOLYLINE
5
173
100
AcDbEntity
8
0
100
AcDbPolyline
90
4
70
1
43
0.0
10
0.49232442736384652
20
2.1071527043307809
10
-0.027675572636126869
20
2.1071525443271253
10
-0.027675412632470475
20
1.5871525443271497
10
0.49232458736750306
20
1.5871527043308054
0
LWPOLYLINE
5
174
100
AcDbEntity
8
0
100
AcDbPolyline
90
4
70
1
43
0.0
10
1.9771251126717395
20
-0.1200468387971365
10
1.4571251126717664
20
-0.12004699880079239
10
1.4571252726754227
20
-0.64004699880076776
10
1.9771252726753963
20
-0.64004683879711199
0
LWPOLYLINE
5
175
100
AcDbEntity
8
0
100
AcDbPolyline
90
4
70
1
43
0.0
10
2.719524655799725
20
1.3647533896387822
10
2.1995246557997512
20
1.3647532296351264
10
2.1995248158034073
20
0.8447532296351512
10
2.7195248158033807
20
0.84475338963880697
0
LWPOLYLINE
5
176
100
AcDbEntity
8
0
100
AcDbPolyline
90
4
70
1
43
0.0
10
-0.99247420202014469
20
-2.3472477525409867
10
-1.512474202020119
20
-2.3472479125446428
10
-1.5124740420164626
20
-2.8672479125446184
10
-0.99247404201648803
20
-2.8672477525409623
0
LWPOLYLINE
5
177
100
AcDbEntity
8
0
100
AcDbPolyline
90
4
70
1
43
0.0
10
1.9771248842357505
20
0.62235316120282858
10
1.4571248842357774
20
0.62235300119917258
10
1.4571250442394337
20
0.10235300119919721
10
1.9771250442394073
20
0.10235316120285297
0
LWPOLYLINE
5
178
100
AcDbEntity
8
0
100
AcDbPolyline
90
4
70
1
43
0.0
10
13.33552458736686
20
1.5871566561749479
10
13.855524587366833
20
1.5871568161786036
10
13.855524427363179
20
2.1071568161785796
10
13.335524427363204
20
2.1071566561749231
0
LWPOLYLINE
5
179
100
AcDbEntity
8
0
100
AcDbPolyline
90
4
70
1
43
0.0
10
12.593126186418822
20
-3.6096435722607967
10
13.113126186418796
20
-3.6096434122571406
10
13.113126026415141
20
-3.089643412257165
10
12.593126026415165
20
-3.0896435722608211
0
LWPOLYLINE
5
180
100
AcDbEntity
8
0
100
AcDbPolyline
90
4
70
1
43
0.0
10
11.850725044238914
20
0.10235619930304021
10
12.370725044238888
20
0.10235635930669618
10
12.370724884235232
20
0.62235635930667144
10
11.850724884235255
20
0.62235619930301578
0
LWPOLYLINE
5
181
100
AcDbEntity
8
0
100
AcDbPolyline
90
4
70
1
43
0.0
10
11.108326186418896
20
-3.6096440291327738
10
11.628326186418869
20
-3.6096438691291177
10
11.628326026415213
20
-3.0896438691291421
10
11.108326026415238
20
-3.0896440291327982
0
LWPOLYLINE
5
182
100
AcDbEntity
8
0
100
AcDbPolyline
90
4
70
1
43
0.0
10
14.077925501110782
20
-1.3824431153889232
10
14.597925501110755
20
-1.3824429553852675
10
14.597925341107096
20
-0.86244295538529203
10
14.077925341107122
20
-0.8624431153889478
0
LWPOLYLINE
5
183
100
AcDbEntity
8
0
100
AcDbPolyline
90
4
70
1
43
0.0
10
11.850724587366933
20
1.5871561993029704
10
12.370724587366908
20
1.5871563593066262
10
12.370724427363253
20
2.1071563593066021
10
11.850724427363277
20
2.107156199302946
0
LWPOLYLINE
5
184
100
AcDbEntity
8
0
100
AcDbPolyline
90
4
70
1
43
0.0
10
-0.25007420202018149
20
-2.3472475241049979
10
-0.77007420202015586
20
-2.347247684108654
10
-0.77007404201650065
20
-2.8672476841086292
10
-0.250074042016526
20
-2.8672475241049735
0
LWPOLYLINE
5
185
100
AcDbEntity
8
0
100
AcDbPolyline
90
4
70
1
43
0.0
10
14.077924587366827
20
1.5871568846109365
10
14.5979245873668
20
1.5871570446145924
10
14.597924427363139
20
2.107157044614568
10
14.077924427363167
20
2.1071568846109123
0
LWPOLYLINE
5
186
100
AcDbEntity
8
0
100
AcDbPolyline
90
4
70
1
43
0.0
10
2.719525112671703
20
-0.12004661036114776
10
2.1995251126717292
20
-0.12004677036480366
10
2.1995252726753858
20
-0.64004677036477886
10
2.7195252726753587
20
-0.64004661036112309
0
LWPOLYLINE
5
187
100
AcDbEntity
8
0
100
AcDbPolyline
90
4
70
1
43
0.0
10
1.9771253411077285
20
-0.86244683879710138
10
1.4571253411077554
20
-0.86244699880075726
10
1.4571255011114117
20
-1.3824469988007326
10
1.9771255011113853
20
-1.3824468387970767
0
LWPOLYLINE
5
188
100
AcDbEntity
8
0
100
AcDbPolyline
90
4
70
1
43
0.0
10
-0.2500744304561705
20
-1.6048475241050328
10
-0.77007443045614488
20
-1.6048476841086887
10
-0.77007427045248966
20
-2.1248476841086639
10
-0.25007427045251501
20
-2.1248475241050082
0
LWPOLYLINE
5
189
100
AcDbEntity
8
0
100
AcDbPolyline
90
4
70
1
43
0.0
10
14.820326186418708
20
-3.6096428869528294
10
15.340326186418682
20
-3.6096427269491738
10
15.340326026415028
20
-3.0896427269491982
10
14.820326026415053
20
-3.0896428869528543
0
LWPOLYLINE
5
190
100
AcDbEntity
8
0
100
AcDbPolyline
90
4
70
1
43
0.0
10
2.7195248842357138
20
0.62235338963881726
10
2.1995248842357404
20
0.62235322963516126
10
2.1995250442393965
20
0.10235322963518609
10
2.7195250442393699
20
0.1023533896388417
0
LWPOLYLINE
5
191
100
AcDbEntity
8
0
100
AcDbPolyline
90
4
70
1
43
0.0
10
-0.99247397358415568
20
-3.0896477525409516
10
-1.5124739735841299
20
-3.0896479125446072
10
-1.5124738135804736
20
-3.6096479125445837
10
-0.99247381358049902
20
-3.6096477525409272
0
LWPOLYLINE
5
192
100
AcDbEntity
8
0
100
AcDbPolyline
90
4
70
1
43
0.0
10
13.335524815802851
20
0.84475665617498308
10
13.855524815802823
20
0.84475681617863896
10
13.855524655799169
20
1.3647568161786141
10
13.335524655799194
20
1.3647566561749587
0
LWPOLYLINE
5
193
100
AcDbEntity
8
0
100
AcDbPolyline
90
4
70
1
43
0.0
10
11.850725272674902
20
-0.64004380069692468
10
12.370725272674877
20
-0.6400436406932688
10
12.37072511267122
20
-0.1200436406932935
10
11.850725112671245
20
-0.12004380069694932
0
LWPOLYLINE
5
194
100
AcDbEntity
8
0
100
AcDbPolyline
90
4
70
1
43
0.0
10
12.593125957982831
20
-2.8672435722608309
10
13.113125957982806
20
-2.8672434122571748
10
13.113125797979151
20
-2.3472434122571997
10
12.593125797979175
20
-2.3472435722608553
0
LWPOLYLINE
5
195
100
AcDbEntity
8
0
100
AcDbPolyline
90
4
70
1
43
0.0
10
11.85072572954688
20
-2.1248438006968544
10
12.370725729546855
20
-2.1248436406931988
10
12.370725569543197
20
-1.6048436406932234
10
11.850725569543224
20
-1.6048438006968793
0
LWPOLYLINE
5
196
100
AcDbEntity
8
0
100
AcDbPolyline
90
4
70
1
43
0.0
10
14.820324587366787
20
1.5871571130469253
10
15.34032458736676
20
1.5871572730505812
10
15.340324427363106
20
2.1071572730505568
10
14.820324427363129
20
2.1071571130469007
0
LWPOLYLINE
5
197
100
AcDbEntity
8
0
100
AcDbPolyline
90
4
70
1
43
0.0
10
0.4923257979797806
20
-2.3472472956690091
10
-0.027674202020192787
20
-2.3472474556726648
10
-0.027674042016536393
20
-2.8672474556726399
10
0.49232595798343715
20
-2.8672472956689843
0
LWPOLYLINE
5
198
100
AcDbEntity
8
0
100
AcDbPolyline
90
4
70
1
43
0.0
10
1.2347246557997995
20
1.3647529327668049
10
0.71472465579982525
20
1.364752772763149
10
0.71472481580348046
20
0.84475277276317373
10
1.2347248158034549
20
0.8447529327668295
0
CIRCLE
5
199
100
AcDbEntity
8
0
100
AcDbCircle
10
7.4805259069049974
20
-2.7012451454044761
30
-3.2526065174565133e-17
40
0.040000000000000001
0
CIRCLE
5
200
100
AcDbEntity
8
0
100
AcDbCircle
10
7.4805247068775769
20
1.1987548545953399
30
-6.9388939039072284e-17
40
0.040000000000000001
0
CIRCLE
5
201
100
AcDbEntity
8
0
100
AcDbCircle
10
19.175492530935273
20
-3.7684020057624181
30
-5.2041704279304213e-17
40
1.0000000000000004
0
CIRCLE
5
202
100
AcDbEntity
8
0
100
AcDbCircle
10
-4.3045074690646565
20
2.2315979942375921
30
2.211772431870429e-16
40
0.99999999999999956
0
ENDSEC
0
SECTION
2
OBJECTS
0
DICTIONARY
5
C
100
AcDbDictionary
3
ACAD_GROUP
350
D
3
ACAD_MLINESTYLE
350
17
0
DICTIONARY
5
D
100
AcDbDictionary
0
DICTIONARY
5
1A
330
C
100
AcDbDictionary
0
DICTIONARY
5
17
100
AcDbDictionary
0
ENDSEC
0
EOF
